<?xml version="1.0" encoding="UTF-8"?>
<!--Generator: Apple Native CoreSVG 232.5-->
<!DOCTYPE svg
PUBLIC "-//W3C//DTD SVG 1.1//EN"
       "http://www.w3.org/Graphics/SVG/1.1/DTD/svg11.dtd">
<svg version="1.1" xmlns="http://www.w3.org/2000/svg" xmlns:xlink="http://www.w3.org/1999/xlink" width="3300" height="2200">
 <!--glyph: "", point size: 100.0, font version: "19.2d2e1", template writer version: "128"-->
 <style>.monochrome-0 {-sfsymbols-motion-group:15}
.monochrome-1 {-sfsymbols-motion-group:14}
.monochrome-2 {-sfsymbols-motion-group:13}
.monochrome-3 {-sfsymbols-motion-group:12}
.monochrome-4 {-sfsymbols-motion-group:11}
.monochrome-5 {-sfsymbols-motion-group:10}
.monochrome-6 {-sfsymbols-motion-group:9}
.monochrome-7 {-sfsymbols-motion-group:8}
.monochrome-8 {-sfsymbols-motion-group:7}
.monochrome-9 {-sfsymbols-motion-group:6}
.monochrome-10 {-sfsymbols-motion-group:5}
.monochrome-11 {-sfsymbols-motion-group:4}
.monochrome-12 {-sfsymbols-motion-group:3}
.monochrome-13 {-sfsymbols-motion-group:2}
.monochrome-14 {-sfsymbols-motion-group:1}
.monochrome-15 {-sfsymbols-motion-group:0}

.multicolor-0:custom {fill:#4C4B4A;-sfsymbols-motion-group:15}
.multicolor-1:custom {fill:#F5FFE2;-sfsymbols-motion-group:14}
.multicolor-2:custom {fill:#4C4B4A;-sfsymbols-motion-group:13}
.multicolor-3:custom {fill:#AFACB4;-sfsymbols-motion-group:12}
.multicolor-4:custom {fill:#DCC718;-sfsymbols-motion-group:11}
.multicolor-5:custom {fill:#4C4B4A;-sfsymbols-motion-group:10}
.multicolor-6:custom {fill:#DCC718;-sfsymbols-motion-group:9}
.multicolor-7:custom {fill:#6E3EFE;-sfsymbols-motion-group:8}
.multicolor-8:custom {fill:#4C4B4A;-sfsymbols-motion-group:7}
.multicolor-9:custom {fill:#F5FFE2;-sfsymbols-motion-group:6}
.multicolor-10:custom {fill:#4C4B4A;-sfsymbols-motion-group:5}
.multicolor-11:custom {fill:#AFACB4;-sfsymbols-motion-group:4}
.multicolor-12:custom {fill:#DCC718;-sfsymbols-motion-group:3}
.multicolor-13:custom {fill:#4C4B4A;-sfsymbols-motion-group:2}
.multicolor-14:custom {fill:#DCC718;-sfsymbols-motion-group:1}
.multicolor-15:custom {fill:#6E3EFE;-sfsymbols-motion-group:0}

.hierarchical-0:tertiary {-sfsymbols-motion-group:15}
.hierarchical-1:secondary {-sfsymbols-motion-group:14}
.hierarchical-2:tertiary {-sfsymbols-motion-group:13}
.hierarchical-3:secondary {-sfsymbols-motion-group:12}
.hierarchical-4:secondary {-sfsymbols-motion-group:11}
.hierarchical-5:tertiary {-sfsymbols-motion-group:10}
.hierarchical-6:secondary {-sfsymbols-motion-group:9}
.hierarchical-7:tertiary {-sfsymbols-motion-group:8}
.hierarchical-8:secondary {-sfsymbols-motion-group:7}
.hierarchical-9:primary {-sfsymbols-motion-group:6}
.hierarchical-10:secondary {-sfsymbols-motion-group:5}
.hierarchical-11:primary {-sfsymbols-motion-group:4}
.hierarchical-12:primary {-sfsymbols-motion-group:3}
.hierarchical-13:secondary {-sfsymbols-motion-group:2}
.hierarchical-14:primary {-sfsymbols-motion-group:1}
.hierarchical-15:secondary {-sfsymbols-motion-group:0}

.SFSymbolsPreviewWireframe {fill:none;opacity:1.0;stroke:black;stroke-width:0.5}
</style>
 <g id="Notes">
  <rect height="2200" id="artboard" style="fill:white;opacity:1" width="3300" x="0" y="0"/>
  <line style="fill:none;stroke:black;opacity:1;stroke-width:0.5;" x1="263" x2="3036" y1="292" y2="292"/>
  <text style="stroke:none;fill:black;font-family:sans-serif;font-size:13;font-weight:bold;" transform="matrix(1 0 0 1 263 322)">Weight/Scale Variations</text>
  <text style="stroke:none;fill:black;font-family:sans-serif;font-size:13;text-anchor:middle;" transform="matrix(1 0 0 1 559.711 322)">Ultralight</text>
  <text style="stroke:none;fill:black;font-family:sans-serif;font-size:13;text-anchor:middle;" transform="matrix(1 0 0 1 856.422 322)">Thin</text>
  <text style="stroke:none;fill:black;font-family:sans-serif;font-size:13;text-anchor:middle;" transform="matrix(1 0 0 1 1153.13 322)">Light</text>
  <text style="stroke:none;fill:black;font-family:sans-serif;font-size:13;text-anchor:middle;" transform="matrix(1 0 0 1 1449.84 322)">Regular</text>
  <text style="stroke:none;fill:black;font-family:sans-serif;font-size:13;text-anchor:middle;" transform="matrix(1 0 0 1 1746.56 322)">Medium</text>
  <text style="stroke:none;fill:black;font-family:sans-serif;font-size:13;text-anchor:middle;" transform="matrix(1 0 0 1 2043.27 322)">Semibold</text>
  <text style="stroke:none;fill:black;font-family:sans-serif;font-size:13;text-anchor:middle;" transform="matrix(1 0 0 1 2339.98 322)">Bold</text>
  <text style="stroke:none;fill:black;font-family:sans-serif;font-size:13;text-anchor:middle;" transform="matrix(1 0 0 1 2636.69 322)">Heavy</text>
  <text style="stroke:none;fill:black;font-family:sans-serif;font-size:13;text-anchor:middle;" transform="matrix(1 0 0 1 2933.4 322)">Black</text>
  <line style="fill:none;stroke:black;opacity:1;stroke-width:0.5;" x1="263" x2="3036" y1="1903" y2="1903"/>
  <g transform="matrix(0.2 0 0 0.2 263 1933)">
   <path d="m46.2402 4.15039c21.5332 0 39.4531-17.8711 39.4531-39.4043s-17.9688-39.4043-39.502-39.4043c-21.4844 0-39.3555 17.8711-39.3555 39.4043s17.9199 39.4043 39.4043 39.4043Zm0-7.42188c-17.7246 0-31.8848-14.209-31.8848-31.9824s14.1113-31.9824 31.8359-31.9824c17.7734 0 32.0312 14.209 32.0312 31.9824s-14.209 31.9824-31.9824 31.9824Zm-17.9688-31.9824c0 2.14844 1.51367 3.61328 3.75977 3.61328h10.498v10.5957c0 2.19727 1.46484 3.71094 3.61328 3.71094 2.24609 0 3.71094-1.51367 3.71094-3.71094v-10.5957h10.5957c2.19727 0 3.71094-1.46484 3.71094-3.61328 0-2.19727-1.51367-3.71094-3.71094-3.71094h-10.5957v-10.5469c0-2.24609-1.46484-3.75977-3.71094-3.75977-2.14844 0-3.61328 1.51367-3.61328 3.75977v10.5469h-10.498c-2.24609 0-3.75977 1.51367-3.75977 3.71094Z"/>
  </g>
  <g transform="matrix(0.2 0 0 0.2 281.506 1933)">
   <path d="m58.5449 14.5508c27.2461 0 49.8047-22.6074 49.8047-49.8047 0-27.2461-22.6074-49.8047-49.8535-49.8047-27.1973 0-49.7559 22.5586-49.7559 49.8047 0 27.1973 22.6074 49.8047 49.8047 49.8047Zm0-8.30078c-23.0469 0-41.4551-18.457-41.4551-41.5039s18.3594-41.5039 41.4062-41.5039 41.5527 18.457 41.5527 41.5039-18.457 41.5039-41.5039 41.5039Zm-22.6562-41.5039c0 2.39258 1.66016 4.00391 4.15039 4.00391h14.3555v14.4043c0 2.44141 1.66016 4.15039 4.05273 4.15039 2.44141 0 4.15039-1.66016 4.15039-4.15039v-14.4043h14.4043c2.44141 0 4.15039-1.61133 4.15039-4.00391 0-2.44141-1.70898-4.15039-4.15039-4.15039h-14.4043v-14.3555c0-2.49023-1.70898-4.19922-4.15039-4.19922-2.39258 0-4.05273 1.70898-4.05273 4.19922v14.3555h-14.3555c-2.49023 0-4.15039 1.70898-4.15039 4.15039Z"/>
  </g>
  <g transform="matrix(0.2 0 0 0.2 304.924 1933)">
   <path d="m74.8535 28.3203c34.8145 0 63.623-28.8086 63.623-63.5742 0-34.8145-28.8574-63.623-63.6719-63.623-34.7656 0-63.5254 28.8086-63.5254 63.623 0 34.7656 28.8086 63.5742 63.5742 63.5742Zm0-9.08203c-30.1758 0-54.4434-24.3164-54.4434-54.4922 0-30.2246 24.2188-54.4922 54.3945-54.4922 30.2246 0 54.541 24.2676 54.541 54.4922 0 30.1758-24.2676 54.4922-54.4922 54.4922Zm-28.8574-54.4922c0 2.58789 1.85547 4.39453 4.58984 4.39453h19.7266v19.7754c0 2.68555 1.85547 4.58984 4.44336 4.58984 2.68555 0 4.54102-1.85547 4.54102-4.58984v-19.7754h19.7754c2.68555 0 4.58984-1.80664 4.58984-4.39453 0-2.73438-1.85547-4.58984-4.58984-4.58984h-19.7754v-19.7266c0-2.73438-1.85547-4.63867-4.54102-4.63867-2.58789 0-4.44336 1.9043-4.44336 4.63867v19.7266h-19.7266c-2.73438 0-4.58984 1.85547-4.58984 4.58984Z"/>
  </g>
  <text style="stroke:none;fill:black;font-family:sans-serif;font-size:13;font-weight:bold;" transform="matrix(1 0 0 1 263 1953)">Design Variations</text>
  <text style="stroke:none;fill:black;font-family:sans-serif;font-size:13;" transform="matrix(1 0 0 1 263 1971)">Symbols are supported in up to nine weights and three scales.</text>
  <text style="stroke:none;fill:black;font-family:sans-serif;font-size:13;" transform="matrix(1 0 0 1 263 1989)">For optimal layout with text and other symbols, vertically align</text>
  <text style="stroke:none;fill:black;font-family:sans-serif;font-size:13;" transform="matrix(1 0 0 1 263 2007)">symbols with the adjacent text.</text>
  <line style="fill:none;stroke:#00AEEF;stroke-width:0.5;opacity:1.0;" x1="776" x2="776" y1="1919" y2="1933"/>
  <g transform="matrix(0.2 0 0 0.2 776 1933)">
   <path d="m16.5527 0.78125c2.58789 0 3.85742-0.976562 4.78516-3.71094l6.29883-17.2363h28.8086l6.29883 17.2363c0.927734 2.73438 2.19727 3.71094 4.73633 3.71094 2.58789 0 4.24805-1.5625 4.24805-4.00391 0-0.830078-0.146484-1.61133-0.537109-2.63672l-22.9004-60.9863c-1.12305-2.97852-3.125-4.49219-6.25-4.49219-3.02734 0-5.07812 1.46484-6.15234 4.44336l-22.9004 61.084c-0.390625 1.02539-0.537109 1.80664-0.537109 2.63672 0 2.44141 1.5625 3.95508 4.10156 3.95508Zm13.4766-28.3691 11.8652-32.8613h0.244141l11.8652 32.8613Z"/>
  </g>
  <line style="fill:none;stroke:#00AEEF;stroke-width:0.5;opacity:1.0;" x1="792.836" x2="792.836" y1="1919" y2="1933"/>
  <text style="stroke:none;fill:black;font-family:sans-serif;font-size:13;font-weight:bold;" transform="matrix(1 0 0 1 776 1953)">Margins</text>
  <text style="stroke:none;fill:black;font-family:sans-serif;font-size:13;" transform="matrix(1 0 0 1 776 1971)">Leading and trailing margins on the left and right side of each symbol</text>
  <text style="stroke:none;fill:black;font-family:sans-serif;font-size:13;" transform="matrix(1 0 0 1 776 1989)">can be adjusted by modifying the x-location of the margin guidelines.</text>
  <text style="stroke:none;fill:black;font-family:sans-serif;font-size:13;" transform="matrix(1 0 0 1 776 2007)">Modifications are automatically applied proportionally to all</text>
  <text style="stroke:none;fill:black;font-family:sans-serif;font-size:13;" transform="matrix(1 0 0 1 776 2025)">scales and weights.</text>
  <g transform="matrix(0.2 0 0 0.2 1289 1933)">
   <path d="m14.209 9.32617 8.49609 8.54492c4.29688 4.3457 9.22852 4.05273 13.8672-1.07422l53.4668-58.9355-4.83398-4.88281-53.0762 58.3984c-1.75781 2.00195-3.41797 2.49023-5.76172 0.146484l-5.85938-5.81055c-2.34375-2.29492-1.80664-4.00391 0.195312-5.81055l57.373-54.0039-4.88281-4.83398-57.959 54.4434c-4.93164 4.58984-5.32227 9.47266-1.02539 13.8184Zm32.0801-90.9668c-2.09961 2.05078-2.24609 4.93164-1.07422 6.88477 1.17188 1.80664 3.4668 2.97852 6.68945 2.14844 7.32422-1.70898 14.9414-2.00195 22.0703 2.68555l-2.92969 7.27539c-1.70898 4.15039-0.830078 7.08008 1.85547 9.81445l11.4746 11.5723c2.44141 2.44141 4.49219 2.53906 7.32422 2.05078l5.32227-0.976562 3.32031 3.36914-0.195312 2.7832c-0.195312 2.49023 0.439453 4.39453 2.88086 6.78711l3.80859 3.71094c2.39258 2.39258 5.46875 2.53906 7.8125 0.195312l14.5508-14.5996c2.34375-2.34375 2.24609-5.32227-0.146484-7.71484l-3.85742-3.80859c-2.39258-2.39258-4.24805-3.17383-6.64062-2.97852l-2.88086 0.244141-3.22266-3.17383 1.2207-5.61523c0.634766-2.83203-0.146484-5.0293-3.07617-7.95898l-10.9863-10.9375c-16.6992-16.6016-38.8672-16.2109-53.3203-1.75781Zm7.4707 1.85547c12.1582-8.88672 28.6133-7.37305 39.7461 3.75977l12.1582 12.0605c1.17188 1.17188 1.36719 2.09961 1.02539 3.80859l-1.61133 7.42188 7.51953 7.42188 4.93164-0.292969c1.26953-0.0488281 1.66016 0.0488281 2.63672 1.02539l2.88086 2.88086-12.207 12.207-2.88086-2.88086c-0.976562-0.976562-1.12305-1.36719-1.07422-2.68555l0.341797-4.88281-7.4707-7.42188-7.61719 1.26953c-1.61133 0.341797-2.34375 0.195312-3.56445-0.976562l-10.0098-10.0098c-1.26953-1.17188-1.41602-2.00195-0.634766-3.85742l4.39453-10.4492c-7.8125-7.27539-17.9688-10.4004-28.125-7.42188-0.78125 0.195312-1.07422-0.439453-0.439453-0.976562Z"/>
  </g>
  <text style="stroke:none;fill:black;font-family:sans-serif;font-size:13;font-weight:bold;" transform="matrix(1 0 0 1 1289 1953)">Exporting</text>
  <text style="stroke:none;fill:black;font-family:sans-serif;font-size:13;" transform="matrix(1 0 0 1 1289 1971)">Symbols should be outlined when exporting to ensure the</text>
  <text style="stroke:none;fill:black;font-family:sans-serif;font-size:13;" transform="matrix(1 0 0 1 1289 1989)">design is preserved when submitting to Xcode.</text>
  <text id="template-version" style="stroke:none;fill:black;font-family:sans-serif;font-size:13;text-anchor:end;" transform="matrix(1 0 0 1 3036 1933)">Template v.5.0</text>
  <text style="stroke:none;fill:black;font-family:sans-serif;font-size:13;text-anchor:end;" transform="matrix(1 0 0 1 3036 1951)">Requires Xcode 15 or greater</text>
  <text id="descriptive-name" style="stroke:none;fill:black;font-family:sans-serif;font-size:13;text-anchor:end;" transform="matrix(1 0 0 1 3036 1969)">Generated from weapon.class.dualies</text>
  <text style="stroke:none;fill:black;font-family:sans-serif;font-size:13;text-anchor:end;" transform="matrix(1 0 0 1 3036 1987)">Typeset at 100.0 points</text>
  <text style="stroke:none;fill:black;font-family:sans-serif;font-size:13;" transform="matrix(1 0 0 1 263 726)">Small</text>
  <text style="stroke:none;fill:black;font-family:sans-serif;font-size:13;" transform="matrix(1 0 0 1 263 1156)">Medium</text>
  <text style="stroke:none;fill:black;font-family:sans-serif;font-size:13;" transform="matrix(1 0 0 1 263 1586)">Large</text>
 </g>
 <g id="Guides">
  <g id="H-reference" style="fill:#27AAE1;stroke:none;" transform="matrix(1 0 0 1 339 696)">
   <path d="M0.993654 0L3.63775 0L29.3281-67.1323L30.0303-67.1323L30.0303-70.459L28.1226-70.459ZM11.6885-24.4799L46.9815-24.4799L46.2315-26.7285L12.4385-26.7285ZM55.1196 0L57.7637 0L30.6382-70.459L29.4326-70.459L29.4326-67.1323Z"/>
  </g>
  <line id="Baseline-S" style="fill:none;stroke:#27AAE1;opacity:1;stroke-width:0.5;" x1="263" x2="3036" y1="696" y2="696"/>
  <line id="Capline-S" style="fill:none;stroke:#27AAE1;opacity:1;stroke-width:0.5;" x1="263" x2="3036" y1="625.541" y2="625.541"/>
  <g id="H-reference" style="fill:#27AAE1;stroke:none;" transform="matrix(1 0 0 1 339 1126)">
   <path d="M0.993654 0L3.63775 0L29.3281-67.1323L30.0303-67.1323L30.0303-70.459L28.1226-70.459ZM11.6885-24.4799L46.9815-24.4799L46.2315-26.7285L12.4385-26.7285ZM55.1196 0L57.7637 0L30.6382-70.459L29.4326-70.459L29.4326-67.1323Z"/>
  </g>
  <line id="Baseline-M" style="fill:none;stroke:#27AAE1;opacity:1;stroke-width:0.5;" x1="263" x2="3036" y1="1126" y2="1126"/>
  <line id="Capline-M" style="fill:none;stroke:#27AAE1;opacity:1;stroke-width:0.5;" x1="263" x2="3036" y1="1055.54" y2="1055.54"/>
  <g id="H-reference" style="fill:#27AAE1;stroke:none;" transform="matrix(1 0 0 1 339 1556)">
   <path d="M0.993654 0L3.63775 0L29.3281-67.1323L30.0303-67.1323L30.0303-70.459L28.1226-70.459ZM11.6885-24.4799L46.9815-24.4799L46.2315-26.7285L12.4385-26.7285ZM55.1196 0L57.7637 0L30.6382-70.459L29.4326-70.459L29.4326-67.1323Z"/>
  </g>
  <line id="Baseline-L" style="fill:none;stroke:#27AAE1;opacity:1;stroke-width:0.5;" x1="263" x2="3036" y1="1556" y2="1556"/>
  <line id="Capline-L" style="fill:none;stroke:#27AAE1;opacity:1;stroke-width:0.5;" x1="263" x2="3036" y1="1485.54" y2="1485.54"/>
  <line id="left-margin-Regular-M" style="fill:none;stroke:#00AEEF;stroke-width:0.5;opacity:1.0;" x1="1392.45" x2="1392.45" y1="1030.79" y2="1150.12"/>
  <line id="right-margin-Regular-M" style="fill:none;stroke:#00AEEF;stroke-width:0.5;opacity:1.0;" x1="1507.24" x2="1507.24" y1="1030.79" y2="1150.12"/>
 </g>
 <g id="Symbols">
  <g id="Regular-L" transform="matrix(1 0 0 1 1379.66 1556)">
   <path class="SFSymbolsPreviewWireframe" d="M26.39-23.16C30.8-27.09 37.56-26.71 41.5-22.3L42.14-21.59C46.07-17.18 45.69-10.42 41.28-6.48L31.34 2.39L16.45-14.29L26.39-23.16ZM16.45-14.29L13.21-11.39L28.1 5.29L31.34 2.39L16.45-14.29Z"/>
   <path class="monochrome-0 multicolor-0:custom hierarchical-0:tertiary SFSymbolsPreviewWireframe" d="M16.45-14.29L13.21-11.39L28.1 5.29L31.34 2.39L16.45-14.29Z"/>
   <path class="monochrome-1 multicolor-1:custom hierarchical-1:secondary SFSymbolsPreviewWireframe" d="M26.39-23.16C30.8-27.09 37.56-26.71 41.5-22.3L42.14-21.59C46.07-17.18 45.69-10.42 41.28-6.48L31.34 2.39L16.45-14.29L26.39-23.16Z"/>
   <path class="monochrome-2 multicolor-2:custom hierarchical-2:tertiary SFSymbolsPreviewWireframe" d="M40.19-23.54L50.62-33.18L54.63-29.43L43.86-18.97C43.43-19.9 42.86-20.78 42.14-21.59L41.5-22.3C41.09-22.76 40.65-23.17 40.19-23.54Z"/>
   <path class="monochrome-3 multicolor-3:custom hierarchical-3:secondary SFSymbolsPreviewWireframe" d="M61.5-48.68L66.96-50.54C67.91-44.12 66.96-41.93 66.31-40.96L54.63-29.43L50.62-33.19C58.12-39.94 62.55-43.09 61.5-48.68Z"/>
   <path class="monochrome-4 multicolor-4:custom hierarchical-4:secondary SFSymbolsPreviewWireframe" d="M42.92-49.35C40.98-48.11 38.31-47.36 35.94-46.95C35.96-46.38 35.98-45.81 36.01-45.25C36.41-35.67 36.77-26.98 38.99-24.37C39.36-24.15 39.72-23.91 40.07-23.64C40.13-23.62 40.19-23.61 40.25-23.6L47.43-30.23C45.84-34.08 42.84-43.04 42.92-49.35Z"/>
   <path class="monochrome-5 multicolor-5:custom hierarchical-5:tertiary SFSymbolsPreviewWireframe" d="M56.76-67.63L57.13-66.37L62.26-66.63C62.3-66.58 62.33-66.53 62.37-66.48C63.76-64.37 66.01-54.97 66.96-50.54L61.5-48.68C59.28-57.65 55.88-59.97 51.36-61.49C53.19-63.72 55.14-65.9 56.76-67.63ZM54.08-76.9L53.5-76.71C46.44-74.52 31.68-63.36 26-49.38C24.53-48.91 21.36-47.54 20.4-45.8C22.94-45.8 24-46.53 24.81-47.09C25.31-47.44 25.72-47.72 26.33-47.72C28.5-47.72 29.03-47.42 29.55-47.12C30.05-46.84 30.54-46.56 32.47-46.56C36.31-46.74 44.28-48.17 45.52-52.45C46.61-56.17 52.7-63.3 56.76-67.63L54.08-76.9Z"/>
   <path class="monochrome-6 multicolor-6:custom hierarchical-6:secondary SFSymbolsPreviewWireframe" d="M57.13-66.37L53.51-78.88L78.49-96.59L88.58-67.96L57.13-66.37Z"/>
   <path class="monochrome-7 multicolor-7:custom hierarchical-7:tertiary SFSymbolsPreviewWireframe" d="M86.7-73.29L94.81-76.11L88.29-94.86L80.1-92.02L86.7-73.29Z"/>
   <path class="monochrome-8 multicolor-8:custom hierarchical-8:secondary SFSymbolsPreviewWireframe" d="M48.68 10.73L45.43 13.62L60.32 30.3L63.57 27.41L48.68 10.73Z"/>
   <path class="monochrome-9 multicolor-9:custom hierarchical-9:primary SFSymbolsPreviewWireframe" d="M58.62 1.85C63.03-2.08 69.79-1.7 73.72 2.71L74.36 3.43C78.3 7.83 77.91 14.6 73.51 18.53L63.57 27.41L48.68 10.73L58.62 1.85Z"/>
   <path class="monochrome-10 multicolor-10:custom hierarchical-10:secondary SFSymbolsPreviewWireframe" d="M72.41 1.47L82.85-8.17L86.86-4.41L76.09 6.04C75.66 5.11 75.08 4.23 74.36 3.43L73.72 2.71C73.32 2.25 72.88 1.84 72.41 1.47Z"/>
   <path class="monochrome-11 multicolor-11:custom hierarchical-11:primary SFSymbolsPreviewWireframe" d="M93.72-23.67L99.18-25.52C100.14-19.1 99.18-16.92 98.53-15.94L86.86-4.41L82.85-8.17C90.34-14.93 94.77-18.08 93.72-23.67Z"/>
   <path class="monochrome-12 multicolor-12:custom hierarchical-12:primary SFSymbolsPreviewWireframe" d="M75.15-24.34C73.2-23.1 70.53-22.35 68.16-21.94C68.19-21.37 68.21-20.8 68.23-20.23C68.63-10.66 68.99-1.97 71.22 0.64C71.59 0.86 71.95 1.11 72.29 1.37C72.35 1.39 72.41 1.4 72.48 1.41L79.65-5.21C78.07-9.06 75.07-18.03 75.15-24.34Z"/>
   <path class="monochrome-13 multicolor-13:custom hierarchical-13:secondary SFSymbolsPreviewWireframe" d="M88.99-42.62L89.35-41.36L94.49-41.62C94.52-41.57 94.56-41.52 94.59-41.46C95.98-39.35 98.23-29.96 99.18-25.52L93.72-23.67C91.51-32.64 88.1-34.95 83.59-36.48C85.41-38.71 87.36-40.88 88.99-42.62ZM86.31-51.88L85.73-51.69C78.66-49.51 63.91-38.35 58.23-24.37C56.76-23.9 53.58-22.52 52.63-20.79C55.17-20.79 56.22-21.52 57.03-22.08C57.54-22.42 57.94-22.7 58.55-22.7C60.73-22.7 61.26-22.4 61.78-22.11C62.28-21.82 62.77-21.55 64.7-21.55C68.53-21.73 76.51-23.16 77.75-27.44C78.83-31.16 84.93-38.29 88.99-42.62L86.31-51.88Z"/>
   <path class="monochrome-14 multicolor-14:custom hierarchical-14:primary SFSymbolsPreviewWireframe" d="M89.35-41.36L85.74-53.86L110.72-71.58L120.8-42.95L89.35-41.36Z"/>
   <path class="monochrome-15 multicolor-15:custom hierarchical-15:secondary SFSymbolsPreviewWireframe" d="M118.92-48.28L127.03-51.09L120.51-69.85L112.33-67L118.92-48.28Z"/>
  </g>
  <g id="Regular-M" transform="matrix(1 0 0 1 1392.45 1126)">
   <path class="SFSymbolsPreviewWireframe" d="M23.43-25.93C26.85-28.98 32.09-28.69 35.14-25.27L35.64-24.72C38.69-21.3 38.39-16.05 34.97-13L27.27-6.13L15.73-19.06L23.43-25.93ZM15.73-19.06L13.21-16.81L24.75-3.88L27.27-6.13L15.73-19.06Z"/>
   <path class="monochrome-0 multicolor-0:custom hierarchical-0:tertiary SFSymbolsPreviewWireframe" d="M15.73-19.06L13.21-16.81L24.75-3.88L27.27-6.13L15.73-19.06Z"/>
   <path class="monochrome-1 multicolor-1:custom hierarchical-1:secondary SFSymbolsPreviewWireframe" d="M23.43-25.93C26.85-28.98 32.09-28.69 35.14-25.27L35.64-24.72C38.69-21.3 38.39-16.05 34.97-13L27.27-6.13L15.73-19.06L23.43-25.93Z"/>
   <path class="monochrome-2 multicolor-2:custom hierarchical-2:tertiary SFSymbolsPreviewWireframe" d="M34.13-26.23L42.22-33.7L45.32-30.79L36.98-22.68C36.64-23.41 36.19-24.09 35.64-24.72L35.14-25.27C34.83-25.62 34.49-25.94 34.13-26.23Z"/>
   <path class="monochrome-3 multicolor-3:custom hierarchical-3:secondary SFSymbolsPreviewWireframe" d="M50.65-45.72L54.88-47.16C55.62-42.18 54.88-40.49 54.37-39.73L45.32-30.79L42.21-33.71C48.03-38.95 51.46-41.38 50.65-45.72Z"/>
   <path class="monochrome-4 multicolor-4:custom hierarchical-4:secondary SFSymbolsPreviewWireframe" d="M36.25-46.24C34.74-45.28 32.67-44.7 30.83-44.38C30.85-43.93 30.87-43.49 30.89-43.05C31.19-35.63 31.47-28.9 33.2-26.87C33.49-26.7 33.76-26.51 34.03-26.31C34.08-26.29 34.13-26.28 34.17-26.27L39.74-31.41C38.51-34.4 36.19-41.34 36.25-46.24Z"/>
   <path class="monochrome-5 multicolor-5:custom hierarchical-5:tertiary SFSymbolsPreviewWireframe" d="M46.98-60.41L47.26-59.43L51.24-59.63C51.27-59.59 51.29-59.55 51.32-59.51C52.4-57.88 54.14-50.59 54.88-47.16L50.65-45.72C48.93-52.67 46.29-54.47 42.79-55.65C44.21-57.38 45.72-59.06 46.98-60.41ZM44.9-67.59L44.45-67.44C38.97-65.75 27.53-57.1 23.13-46.26C21.99-45.9 19.53-44.83 18.79-43.49C20.76-43.49 21.58-44.05 22.2-44.48C22.59-44.75 22.91-44.97 23.38-44.97C25.07-44.97 25.48-44.74 25.88-44.51C26.27-44.29 26.65-44.07 28.15-44.07C31.12-44.21 37.3-45.32 38.26-48.64C39.1-51.53 43.83-57.05 46.97-60.41L44.9-67.59Z"/>
   <path class="monochrome-6 multicolor-6:custom hierarchical-6:secondary SFSymbolsPreviewWireframe" d="M47.26-59.43L44.46-69.12L63.82-82.86L71.64-60.66L47.26-59.43Z"/>
   <path class="monochrome-7 multicolor-7:custom hierarchical-7:tertiary SFSymbolsPreviewWireframe" d="M70.18-64.79L76.47-66.98L71.41-81.52L65.07-79.31L70.18-64.79Z"/>
   <path class="monochrome-8 multicolor-8:custom hierarchical-8:secondary SFSymbolsPreviewWireframe" d="M40.71 0.33L38.19 2.58L49.73 15.51L52.25 13.26L40.71 0.33Z"/>
   <path class="monochrome-9 multicolor-9:custom hierarchical-9:primary SFSymbolsPreviewWireframe" d="M48.41-6.54C51.83-9.59 57.07-9.3 60.12-5.88L60.62-5.32C63.67-1.91 63.37 3.34 59.95 6.39L52.25 13.26L40.71 0.33L48.41-6.54Z"/>
   <path class="monochrome-10 multicolor-10:custom hierarchical-10:secondary SFSymbolsPreviewWireframe" d="M59.11-6.84L67.2-14.31L70.3-11.4L61.96-3.29C61.62-4.02 61.17-4.7 60.62-5.32L60.12-5.88C59.81-6.23 59.47-6.55 59.11-6.84Z"/>
   <path class="monochrome-11 multicolor-11:custom hierarchical-11:primary SFSymbolsPreviewWireframe" d="M75.63-26.33L79.86-27.77C80.6-22.79 79.86-21.1 79.36-20.34L70.3-11.4L67.19-14.32C73.01-19.56 76.44-21.99 75.63-26.33Z"/>
   <path class="monochrome-12 multicolor-12:custom hierarchical-12:primary SFSymbolsPreviewWireframe" d="M61.23-26.85C59.72-25.89 57.65-25.31 55.81-24.99C55.83-24.54 55.85-24.1 55.87-23.66C56.17-16.24 56.45-9.51 58.18-7.48C58.47-7.31 58.75-7.12 59.01-6.92C59.06-6.9 59.11-6.89 59.15-6.88L64.72-12.02C63.49-15.01 61.17-21.95 61.23-26.85Z"/>
   <path class="monochrome-13 multicolor-13:custom hierarchical-13:secondary SFSymbolsPreviewWireframe" d="M71.96-41.02L72.24-40.04L76.22-40.24C76.25-40.2 76.27-40.16 76.3-40.12C77.38-38.49 79.12-31.2 79.86-27.77L75.63-26.33C73.91-33.28 71.27-35.08 67.77-36.26C69.19-37.99 70.7-39.67 71.96-41.02ZM69.88-48.2L69.43-48.05C63.95-46.36 52.51-37.71 48.11-26.87C46.97-26.51 44.51-25.44 43.77-24.1C45.74-24.1 46.56-24.66 47.19-25.09C47.58-25.36 47.89-25.58 48.36-25.58C50.05-25.58 50.46-25.35 50.86-25.12C51.25-24.9 51.63-24.68 53.13-24.68C56.1-24.82 62.28-25.93 63.24-29.25C64.08-32.14 68.81-37.66 71.96-41.02L69.88-48.2Z"/>
   <path class="monochrome-14 multicolor-14:custom hierarchical-14:primary SFSymbolsPreviewWireframe" d="M72.24-40.04L69.44-49.73L88.8-63.47L96.62-41.27L72.24-40.04Z"/>
   <path class="monochrome-15 multicolor-15:custom hierarchical-15:secondary SFSymbolsPreviewWireframe" d="M95.16-45.4L101.45-47.59L96.39-62.13L90.05-59.92L95.16-45.4Z"/>
  </g>
  <g id="Regular-S" transform="matrix(1 0 0 1 1402.02 696)">
   <path class="SFSymbolsPreviewWireframe" d="M21.21-27.714C23.89-30.102 28-29.87 30.38-27.194L30.77-26.76C33.16-24.085 32.93-19.979 30.25-17.591L24.22-12.206L15.18-22.329L21.21-27.714ZM15.18-22.329L13.21-20.57L22.25-10.447L24.22-12.206L15.18-22.329Z"/>
   <path class="monochrome-0 multicolor-0:custom hierarchical-0:tertiary SFSymbolsPreviewWireframe" d="M15.18-22.329L13.21-20.57L22.25-10.447L24.22-12.206L15.18-22.329Z"/>
   <path class="monochrome-1 multicolor-1:custom hierarchical-1:secondary SFSymbolsPreviewWireframe" d="M21.21-27.714C23.89-30.102 28-29.87 30.38-27.194L30.77-26.76C33.16-24.085 32.93-19.979 30.25-17.591L24.22-12.206L15.18-22.329L21.21-27.714Z"/>
   <path class="monochrome-2 multicolor-2:custom hierarchical-2:tertiary SFSymbolsPreviewWireframe" d="M29.59-27.948L35.92-33.798L38.35-31.519L31.82-25.171C31.56-25.736 31.21-26.272 30.77-26.76L30.38-27.194C30.14-27.472 29.87-27.723 29.59-27.948Z"/>
   <path class="monochrome-3 multicolor-3:custom hierarchical-3:secondary SFSymbolsPreviewWireframe" d="M42.52-43.207L45.84-44.332C46.42-40.435 45.84-39.11 45.44-38.517L38.36-31.518L35.92-33.8C40.47-37.903 43.16-39.812 42.52-43.207Z"/>
   <path class="monochrome-4 multicolor-4:custom hierarchical-4:secondary SFSymbolsPreviewWireframe" d="M31.25-43.614C30.07-42.86 28.45-42.405 27.01-42.156C27.02-41.809 27.04-41.464 27.05-41.12C27.29-35.31 27.51-30.036 28.86-28.45C29.09-28.317 29.3-28.169 29.51-28.006C29.55-27.996 29.59-27.988 29.63-27.981L33.98-32.005C33.02-34.341 31.2-39.781 31.25-43.614Z"/>
   <path class="monochrome-5 multicolor-5:custom hierarchical-5:tertiary SFSymbolsPreviewWireframe" d="M39.65-54.707L39.87-53.942L42.99-54.1C43.01-54.07 43.03-54.039 43.05-54.008C43.89-52.726 45.26-47.023 45.84-44.332L42.52-43.207C41.18-48.65 39.11-50.056 36.37-50.98C37.48-52.333 38.66-53.656 39.65-54.707ZM38.02-60.333L37.67-60.216C33.38-58.889 24.42-52.116 20.98-43.63C20.09-43.344 18.16-42.511 17.58-41.457C19.12-41.457 19.76-41.9 20.25-42.239C20.56-42.45 20.81-42.62 21.18-42.62C22.5-42.62 22.82-42.438 23.13-42.259C23.44-42.087 23.73-41.918 24.91-41.918C27.23-42.028 32.07-42.897 32.83-45.495C33.48-47.754 37.18-52.079 39.65-54.707L38.02-60.333Z"/>
   <path class="monochrome-6 multicolor-6:custom hierarchical-6:secondary SFSymbolsPreviewWireframe" d="M39.87-53.942L37.68-61.533L52.84-72.284L58.96-54.907L39.87-53.942Z"/>
   <path class="monochrome-7 multicolor-7:custom hierarchical-7:tertiary SFSymbolsPreviewWireframe" d="M57.82-58.142L62.74-59.853L58.78-71.237L53.81-69.51L57.82-58.142Z"/>
   <path class="monochrome-8 multicolor-8:custom hierarchical-8:secondary SFSymbolsPreviewWireframe" d="M34.74-7.146L32.77-5.387L41.81 4.736L43.78 2.977L34.74-7.146Z"/>
   <path class="monochrome-9 multicolor-9:custom hierarchical-9:primary SFSymbolsPreviewWireframe" d="M40.77-12.531C43.45-14.92 47.55-14.687 49.94-12.012L50.33-11.578C52.72-8.902 52.49-4.797 49.81-2.408L43.78 2.977L34.74-7.146L40.77-12.531Z"/>
   <path class="monochrome-10 multicolor-10:custom hierarchical-10:secondary SFSymbolsPreviewWireframe" d="M49.15-12.765L55.48-18.616L57.91-16.337L51.38-9.988C51.12-10.553 50.77-11.09 50.33-11.578L49.94-12.012C49.7-12.289 49.43-12.54 49.15-12.765Z"/>
   <path class="monochrome-11 multicolor-11:custom hierarchical-11:primary SFSymbolsPreviewWireframe" d="M62.08-28.024L65.4-29.149C65.98-25.253 65.4-23.928 65-23.335L57.91-16.336L55.48-18.618C60.03-22.721 62.72-24.63 62.08-28.024Z"/>
   <path class="monochrome-12 multicolor-12:custom hierarchical-12:primary SFSymbolsPreviewWireframe" d="M50.81-28.432C49.63-27.678 48.01-27.223 46.57-26.974C46.58-26.627 46.6-26.282 46.61-25.938C46.85-20.127 47.07-14.853 48.42-13.268C48.65-13.134 48.86-12.986 49.07-12.824C49.11-12.814 49.15-12.805 49.18-12.799L53.54-16.822C52.58-19.159 50.76-24.598 50.81-28.432Z"/>
   <path class="monochrome-13 multicolor-13:custom hierarchical-13:secondary SFSymbolsPreviewWireframe" d="M59.21-39.525L59.43-38.759L62.55-38.917C62.57-38.887 62.59-38.857 62.61-38.825C63.45-37.544 64.82-31.841 65.4-29.149L62.08-28.024C60.74-33.468 58.67-34.874 55.93-35.798C57.04-37.151 58.22-38.474 59.21-39.525ZM57.58-45.15L57.23-45.034C52.94-43.706 43.98-36.934 40.54-28.447C39.65-28.162 37.72-27.328 37.14-26.275C38.68-26.275 39.32-26.717 39.81-27.057C40.12-27.267 40.37-27.438 40.74-27.438C42.06-27.438 42.38-27.255 42.69-27.077C43-26.905 43.29-26.736 44.47-26.736C46.79-26.846 51.63-27.714 52.39-30.312C53.04-32.571 56.74-36.896 59.21-39.525L57.58-45.15Z"/>
   <path class="monochrome-14 multicolor-14:custom hierarchical-14:primary SFSymbolsPreviewWireframe" d="M59.43-38.759L57.23-46.351L72.4-57.102L78.52-39.725L59.43-38.759Z"/>
   <path class="monochrome-15 multicolor-15:custom hierarchical-15:secondary SFSymbolsPreviewWireframe" d="M77.38-42.96L82.3-44.671L78.34-56.055L73.37-54.328L77.38-42.96Z"/>
  </g>
 </g>
</svg>
