<?xml version="1.0" encoding="UTF-8"?>
<!--Generator: Apple Native CoreSVG 232.5-->
<!DOCTYPE svg
PUBLIC "-//W3C//DTD SVG 1.1//EN"
       "http://www.w3.org/Graphics/SVG/1.1/DTD/svg11.dtd">
<svg version="1.1" xmlns="http://www.w3.org/2000/svg" xmlns:xlink="http://www.w3.org/1999/xlink" width="3300" height="2200">
 <!--glyph: "", point size: 100.0, font version: "19.2d2e1", template writer version: "128"-->
 <style>.monochrome-0 {-sfsymbols-motion-group:5}
.monochrome-1 {-sfsymbols-motion-group:4}
.monochrome-2 {opacity:0.0;-sfsymbols-clear-behind:true;-sfsymbols-motion-group:3}
.monochrome-3 {-sfsymbols-motion-group:2}
.monochrome-4 {-sfsymbols-motion-group:1}
.monochrome-5 {-sfsymbols-motion-group:0}

.multicolor-0:custom {fill:#4A4A49;-sfsymbols-motion-group:5}
.multicolor-1:custom {fill:#F5FFE2;-sfsymbols-motion-group:4}
.multicolor-2:custom {fill:#DDC212;-sfsymbols-clear-behind:true;-sfsymbols-motion-group:3}
.multicolor-3:custom {fill:#7340FD;-sfsymbols-clear-behind:true;-sfsymbols-motion-group:2}
.multicolor-4:custom {fill:#DDC212;-sfsymbols-motion-group:1}
.multicolor-5:custom {fill:#F5FFE2;-sfsymbols-motion-group:0}

.hierarchical-0:secondary {-sfsymbols-motion-group:5}
.hierarchical-1:primary {-sfsymbols-motion-group:4}
.hierarchical-2:secondary {-sfsymbols-clear-behind:true;-sfsymbols-motion-group:3}
.hierarchical-3:tertiary {-sfsymbols-clear-behind:true;-sfsymbols-motion-group:2}
.hierarchical-4:secondary {-sfsymbols-motion-group:1}
.hierarchical-5:primary {-sfsymbols-motion-group:0}

.SFSymbolsPreviewWireframe {fill:none;opacity:1.0;stroke:black;stroke-width:0.5}
</style>
 <g id="Notes">
  <rect height="2200" id="artboard" style="fill:white;opacity:1" width="3300" x="0" y="0"/>
  <line style="fill:none;stroke:black;opacity:1;stroke-width:0.5;" x1="263" x2="3036" y1="292" y2="292"/>
  <text style="stroke:none;fill:black;font-family:sans-serif;font-size:13;font-weight:bold;" transform="matrix(1 0 0 1 263 322)">Weight/Scale Variations</text>
  <text style="stroke:none;fill:black;font-family:sans-serif;font-size:13;text-anchor:middle;" transform="matrix(1 0 0 1 559.711 322)">Ultralight</text>
  <text style="stroke:none;fill:black;font-family:sans-serif;font-size:13;text-anchor:middle;" transform="matrix(1 0 0 1 856.422 322)">Thin</text>
  <text style="stroke:none;fill:black;font-family:sans-serif;font-size:13;text-anchor:middle;" transform="matrix(1 0 0 1 1153.13 322)">Light</text>
  <text style="stroke:none;fill:black;font-family:sans-serif;font-size:13;text-anchor:middle;" transform="matrix(1 0 0 1 1449.84 322)">Regular</text>
  <text style="stroke:none;fill:black;font-family:sans-serif;font-size:13;text-anchor:middle;" transform="matrix(1 0 0 1 1746.56 322)">Medium</text>
  <text style="stroke:none;fill:black;font-family:sans-serif;font-size:13;text-anchor:middle;" transform="matrix(1 0 0 1 2043.27 322)">Semibold</text>
  <text style="stroke:none;fill:black;font-family:sans-serif;font-size:13;text-anchor:middle;" transform="matrix(1 0 0 1 2339.98 322)">Bold</text>
  <text style="stroke:none;fill:black;font-family:sans-serif;font-size:13;text-anchor:middle;" transform="matrix(1 0 0 1 2636.69 322)">Heavy</text>
  <text style="stroke:none;fill:black;font-family:sans-serif;font-size:13;text-anchor:middle;" transform="matrix(1 0 0 1 2933.4 322)">Black</text>
  <line style="fill:none;stroke:black;opacity:1;stroke-width:0.5;" x1="263" x2="3036" y1="1903" y2="1903"/>
  <g transform="matrix(0.2 0 0 0.2 263 1933)">
   <path d="m46.2402 4.15039c21.5332 0 39.4531-17.8711 39.4531-39.4043s-17.9688-39.4043-39.502-39.4043c-21.4844 0-39.3555 17.8711-39.3555 39.4043s17.9199 39.4043 39.4043 39.4043Zm0-7.42188c-17.7246 0-31.8848-14.209-31.8848-31.9824s14.1113-31.9824 31.8359-31.9824c17.7734 0 32.0312 14.209 32.0312 31.9824s-14.209 31.9824-31.9824 31.9824Zm-17.9688-31.9824c0 2.14844 1.51367 3.61328 3.75977 3.61328h10.498v10.5957c0 2.19727 1.46484 3.71094 3.61328 3.71094 2.24609 0 3.71094-1.51367 3.71094-3.71094v-10.5957h10.5957c2.19727 0 3.71094-1.46484 3.71094-3.61328 0-2.19727-1.51367-3.71094-3.71094-3.71094h-10.5957v-10.5469c0-2.24609-1.46484-3.75977-3.71094-3.75977-2.14844 0-3.61328 1.51367-3.61328 3.75977v10.5469h-10.498c-2.24609 0-3.75977 1.51367-3.75977 3.71094Z"/>
  </g>
  <g transform="matrix(0.2 0 0 0.2 281.506 1933)">
   <path d="m58.5449 14.5508c27.2461 0 49.8047-22.6074 49.8047-49.8047 0-27.2461-22.6074-49.8047-49.8535-49.8047-27.1973 0-49.7559 22.5586-49.7559 49.8047 0 27.1973 22.6074 49.8047 49.8047 49.8047Zm0-8.30078c-23.0469 0-41.4551-18.457-41.4551-41.5039s18.3594-41.5039 41.4062-41.5039 41.5527 18.457 41.5527 41.5039-18.457 41.5039-41.5039 41.5039Zm-22.6562-41.5039c0 2.39258 1.66016 4.00391 4.15039 4.00391h14.3555v14.4043c0 2.44141 1.66016 4.15039 4.05273 4.15039 2.44141 0 4.15039-1.66016 4.15039-4.15039v-14.4043h14.4043c2.44141 0 4.15039-1.61133 4.15039-4.00391 0-2.44141-1.70898-4.15039-4.15039-4.15039h-14.4043v-14.3555c0-2.49023-1.70898-4.19922-4.15039-4.19922-2.39258 0-4.05273 1.70898-4.05273 4.19922v14.3555h-14.3555c-2.49023 0-4.15039 1.70898-4.15039 4.15039Z"/>
  </g>
  <g transform="matrix(0.2 0 0 0.2 304.924 1933)">
   <path d="m74.8535 28.3203c34.8145 0 63.623-28.8086 63.623-63.5742 0-34.8145-28.8574-63.623-63.6719-63.623-34.7656 0-63.5254 28.8086-63.5254 63.623 0 34.7656 28.8086 63.5742 63.5742 63.5742Zm0-9.08203c-30.1758 0-54.4434-24.3164-54.4434-54.4922 0-30.2246 24.2188-54.4922 54.3945-54.4922 30.2246 0 54.541 24.2676 54.541 54.4922 0 30.1758-24.2676 54.4922-54.4922 54.4922Zm-28.8574-54.4922c0 2.58789 1.85547 4.39453 4.58984 4.39453h19.7266v19.7754c0 2.68555 1.85547 4.58984 4.44336 4.58984 2.68555 0 4.54102-1.85547 4.54102-4.58984v-19.7754h19.7754c2.68555 0 4.58984-1.80664 4.58984-4.39453 0-2.73438-1.85547-4.58984-4.58984-4.58984h-19.7754v-19.7266c0-2.73438-1.85547-4.63867-4.54102-4.63867-2.58789 0-4.44336 1.9043-4.44336 4.63867v19.7266h-19.7266c-2.73438 0-4.58984 1.85547-4.58984 4.58984Z"/>
  </g>
  <text style="stroke:none;fill:black;font-family:sans-serif;font-size:13;font-weight:bold;" transform="matrix(1 0 0 1 263 1953)">Design Variations</text>
  <text style="stroke:none;fill:black;font-family:sans-serif;font-size:13;" transform="matrix(1 0 0 1 263 1971)">Symbols are supported in up to nine weights and three scales.</text>
  <text style="stroke:none;fill:black;font-family:sans-serif;font-size:13;" transform="matrix(1 0 0 1 263 1989)">For optimal layout with text and other symbols, vertically align</text>
  <text style="stroke:none;fill:black;font-family:sans-serif;font-size:13;" transform="matrix(1 0 0 1 263 2007)">symbols with the adjacent text.</text>
  <line style="fill:none;stroke:#00AEEF;stroke-width:0.5;opacity:1.0;" x1="776" x2="776" y1="1919" y2="1933"/>
  <g transform="matrix(0.2 0 0 0.2 776 1933)">
   <path d="m16.5527 0.78125c2.58789 0 3.85742-0.976562 4.78516-3.71094l6.29883-17.2363h28.8086l6.29883 17.2363c0.927734 2.73438 2.19727 3.71094 4.73633 3.71094 2.58789 0 4.24805-1.5625 4.24805-4.00391 0-0.830078-0.146484-1.61133-0.537109-2.63672l-22.9004-60.9863c-1.12305-2.97852-3.125-4.49219-6.25-4.49219-3.02734 0-5.07812 1.46484-6.15234 4.44336l-22.9004 61.084c-0.390625 1.02539-0.537109 1.80664-0.537109 2.63672 0 2.44141 1.5625 3.95508 4.10156 3.95508Zm13.4766-28.3691 11.8652-32.8613h0.244141l11.8652 32.8613Z"/>
  </g>
  <line style="fill:none;stroke:#00AEEF;stroke-width:0.5;opacity:1.0;" x1="792.836" x2="792.836" y1="1919" y2="1933"/>
  <text style="stroke:none;fill:black;font-family:sans-serif;font-size:13;font-weight:bold;" transform="matrix(1 0 0 1 776 1953)">Margins</text>
  <text style="stroke:none;fill:black;font-family:sans-serif;font-size:13;" transform="matrix(1 0 0 1 776 1971)">Leading and trailing margins on the left and right side of each symbol</text>
  <text style="stroke:none;fill:black;font-family:sans-serif;font-size:13;" transform="matrix(1 0 0 1 776 1989)">can be adjusted by modifying the x-location of the margin guidelines.</text>
  <text style="stroke:none;fill:black;font-family:sans-serif;font-size:13;" transform="matrix(1 0 0 1 776 2007)">Modifications are automatically applied proportionally to all</text>
  <text style="stroke:none;fill:black;font-family:sans-serif;font-size:13;" transform="matrix(1 0 0 1 776 2025)">scales and weights.</text>
  <g transform="matrix(0.2 0 0 0.2 1289 1933)">
   <path d="m14.209 9.32617 8.49609 8.54492c4.29688 4.3457 9.22852 4.05273 13.8672-1.07422l53.4668-58.9355-4.83398-4.88281-53.0762 58.3984c-1.75781 2.00195-3.41797 2.49023-5.76172 0.146484l-5.85938-5.81055c-2.34375-2.29492-1.80664-4.00391 0.195312-5.81055l57.373-54.0039-4.88281-4.83398-57.959 54.4434c-4.93164 4.58984-5.32227 9.47266-1.02539 13.8184Zm32.0801-90.9668c-2.09961 2.05078-2.24609 4.93164-1.07422 6.88477 1.17188 1.80664 3.4668 2.97852 6.68945 2.14844 7.32422-1.70898 14.9414-2.00195 22.0703 2.68555l-2.92969 7.27539c-1.70898 4.15039-0.830078 7.08008 1.85547 9.81445l11.4746 11.5723c2.44141 2.44141 4.49219 2.53906 7.32422 2.05078l5.32227-0.976562 3.32031 3.36914-0.195312 2.7832c-0.195312 2.49023 0.439453 4.39453 2.88086 6.78711l3.80859 3.71094c2.39258 2.39258 5.46875 2.53906 7.8125 0.195312l14.5508-14.5996c2.34375-2.34375 2.24609-5.32227-0.146484-7.71484l-3.85742-3.80859c-2.39258-2.39258-4.24805-3.17383-6.64062-2.97852l-2.88086 0.244141-3.22266-3.17383 1.2207-5.61523c0.634766-2.83203-0.146484-5.0293-3.07617-7.95898l-10.9863-10.9375c-16.6992-16.6016-38.8672-16.2109-53.3203-1.75781Zm7.4707 1.85547c12.1582-8.88672 28.6133-7.37305 39.7461 3.75977l12.1582 12.0605c1.17188 1.17188 1.36719 2.09961 1.02539 3.80859l-1.61133 7.42188 7.51953 7.42188 4.93164-0.292969c1.26953-0.0488281 1.66016 0.0488281 2.63672 1.02539l2.88086 2.88086-12.207 12.207-2.88086-2.88086c-0.976562-0.976562-1.12305-1.36719-1.07422-2.68555l0.341797-4.88281-7.4707-7.42188-7.61719 1.26953c-1.61133 0.341797-2.34375 0.195312-3.56445-0.976562l-10.0098-10.0098c-1.26953-1.17188-1.41602-2.00195-0.634766-3.85742l4.39453-10.4492c-7.8125-7.27539-17.9688-10.4004-28.125-7.42188-0.78125 0.195312-1.07422-0.439453-0.439453-0.976562Z"/>
  </g>
  <text style="stroke:none;fill:black;font-family:sans-serif;font-size:13;font-weight:bold;" transform="matrix(1 0 0 1 1289 1953)">Exporting</text>
  <text style="stroke:none;fill:black;font-family:sans-serif;font-size:13;" transform="matrix(1 0 0 1 1289 1971)">Symbols should be outlined when exporting to ensure the</text>
  <text style="stroke:none;fill:black;font-family:sans-serif;font-size:13;" transform="matrix(1 0 0 1 1289 1989)">design is preserved when submitting to Xcode.</text>
  <text id="template-version" style="stroke:none;fill:black;font-family:sans-serif;font-size:13;text-anchor:end;" transform="matrix(1 0 0 1 3036 1933)">Template v.5.0</text>
  <text style="stroke:none;fill:black;font-family:sans-serif;font-size:13;text-anchor:end;" transform="matrix(1 0 0 1 3036 1951)">Requires Xcode 15 or greater</text>
  <text id="descriptive-name" style="stroke:none;fill:black;font-family:sans-serif;font-size:13;text-anchor:end;" transform="matrix(1 0 0 1 3036 1969)">Generated from weapon.class.roller</text>
  <text style="stroke:none;fill:black;font-family:sans-serif;font-size:13;text-anchor:end;" transform="matrix(1 0 0 1 3036 1987)">Typeset at 100.0 points</text>
  <text style="stroke:none;fill:black;font-family:sans-serif;font-size:13;" transform="matrix(1 0 0 1 263 726)">Small</text>
  <text style="stroke:none;fill:black;font-family:sans-serif;font-size:13;" transform="matrix(1 0 0 1 263 1156)">Medium</text>
  <text style="stroke:none;fill:black;font-family:sans-serif;font-size:13;" transform="matrix(1 0 0 1 263 1586)">Large</text>
 </g>
 <g id="Guides">
  <g id="H-reference" style="fill:#27AAE1;stroke:none;" transform="matrix(1 0 0 1 339 696)">
   <path d="M0.993654 0L3.63775 0L29.3281-67.1323L30.0303-67.1323L30.0303-70.459L28.1226-70.459ZM11.6885-24.4799L46.9815-24.4799L46.2315-26.7285L12.4385-26.7285ZM55.1196 0L57.7637 0L30.6382-70.459L29.4326-70.459L29.4326-67.1323Z"/>
  </g>
  <line id="Baseline-S" style="fill:none;stroke:#27AAE1;opacity:1;stroke-width:0.5;" x1="263" x2="3036" y1="696" y2="696"/>
  <line id="Capline-S" style="fill:none;stroke:#27AAE1;opacity:1;stroke-width:0.5;" x1="263" x2="3036" y1="625.541" y2="625.541"/>
  <g id="H-reference" style="fill:#27AAE1;stroke:none;" transform="matrix(1 0 0 1 339 1126)">
   <path d="M0.993654 0L3.63775 0L29.3281-67.1323L30.0303-67.1323L30.0303-70.459L28.1226-70.459ZM11.6885-24.4799L46.9815-24.4799L46.2315-26.7285L12.4385-26.7285ZM55.1196 0L57.7637 0L30.6382-70.459L29.4326-70.459L29.4326-67.1323Z"/>
  </g>
  <line id="Baseline-M" style="fill:none;stroke:#27AAE1;opacity:1;stroke-width:0.5;" x1="263" x2="3036" y1="1126" y2="1126"/>
  <line id="Capline-M" style="fill:none;stroke:#27AAE1;opacity:1;stroke-width:0.5;" x1="263" x2="3036" y1="1055.54" y2="1055.54"/>
  <g id="H-reference" style="fill:#27AAE1;stroke:none;" transform="matrix(1 0 0 1 339 1556)">
   <path d="M0.993654 0L3.63775 0L29.3281-67.1323L30.0303-67.1323L30.0303-70.459L28.1226-70.459ZM11.6885-24.4799L46.9815-24.4799L46.2315-26.7285L12.4385-26.7285ZM55.1196 0L57.7637 0L30.6382-70.459L29.4326-70.459L29.4326-67.1323Z"/>
  </g>
  <line id="Baseline-L" style="fill:none;stroke:#27AAE1;opacity:1;stroke-width:0.5;" x1="263" x2="3036" y1="1556" y2="1556"/>
  <line id="Capline-L" style="fill:none;stroke:#27AAE1;opacity:1;stroke-width:0.5;" x1="263" x2="3036" y1="1485.54" y2="1485.54"/>
  <line id="left-margin-Regular-M" style="fill:none;stroke:#00AEEF;stroke-width:0.5;opacity:1.0;" x1="1392.45" x2="1392.45" y1="1030.79" y2="1150.12"/>
  <line id="right-margin-Regular-M" style="fill:none;stroke:#00AEEF;stroke-width:0.5;opacity:1.0;" x1="1507.24" x2="1507.24" y1="1030.79" y2="1150.12"/>
 </g>
 <g id="Symbols">
  <g id="Regular-L" transform="matrix(1 0 0 1 1376.74 1556)">
   <path class="monochrome-0 multicolor-0:custom hierarchical-0:secondary SFSymbolsPreviewWireframe" d="M61.2163-5.6L47.8463-10.51L38.8963 14.79L52.2563 19.7L61.2163-5.6Z"/>
   <path class="monochrome-1 multicolor-1:custom hierarchical-1:primary SFSymbolsPreviewWireframe" d="M80.0763-26.62L80.0763-26.62C74.6963-28.6 68.7563-25.76 66.8163-20.27L60.7163-3.04C58.7763 2.45 61.5663 8.5 66.9463 10.48C72.3263 12.45 78.2663 9.61 80.2063 4.13L86.3063-13.11C88.2463-18.59 85.4563-24.64 80.0763-26.62Z"/>
   <path class="monochrome-2 multicolor-2:custom hierarchical-2:secondary SFSymbolsPreviewWireframe" d="M60.3663-9.13L82.0663 4.11L86.9363-9.13L65.6863-22.08L60.3663-9.13Z"/>
   <path class="monochrome-3 multicolor-3:custom hierarchical-3:tertiary SFSymbolsPreviewWireframe" d="M7.25633-73.04C9.36633-77.24 16.3563-84.73 27.3663-81.16L23.7863-71.03L23.6063-71.1C19.2463-72.73 17.3363-71.19 15.4963-66.78C12.6963-60.08 14.8063-57.01 16.6463-56.31L59.8063-40.03C67.9663-36.67 67.7563-30.03 66.6363-27.14L59.2663-6.31L49.8263-9.78L55.8363-26.61C56.2963-27.74 56.3363-30.31 52.8663-31.55L10.0663-48.21C4.53633-50.27 0.366335-61.19 7.25633-73.04ZM76.2563 10.52L60.1363 4.6L56.7163 14.28L72.8363 20.2L76.2563 10.52Z"/>
   <path class="monochrome-4 multicolor-4:custom hierarchical-4:secondary SFSymbolsPreviewWireframe" d="M127.996-24.12L134.696-21.65L143.396-46.25L136.696-48.71L127.996-24.12Z"/>
   <path class="monochrome-5 multicolor-5:custom hierarchical-5:primary SFSymbolsPreviewWireframe" d="M138.206-52.97L31.3063-92.28L19.5563-59.08L126.456-19.77L138.206-52.97Z"/>
  </g>
  <g id="Regular-M" transform="matrix(1 0 0 1 1392.45 1126)">
   <path class="monochrome-0 multicolor-0:custom hierarchical-0:secondary SFSymbolsPreviewWireframe" d="M48.27-12.58L37.92-16.39L30.98 3.22L41.33 7.03L48.27-12.58Z"/>
   <path class="monochrome-1 multicolor-1:custom hierarchical-1:primary SFSymbolsPreviewWireframe" d="M62.89-28.88L62.89-28.88C58.72-30.42 54.12-28.21 52.62-23.96L47.89-10.6C46.38-6.35 48.55-1.66 52.72-0.12L52.72-0.12C56.89 1.41 61.49-0.79 63-5.04L67.72-18.4C69.23-22.66 67.07-27.35 62.89-28.88Z"/>
   <path class="monochrome-2 multicolor-2:custom hierarchical-2:secondary SFSymbolsPreviewWireframe" d="M47.62-15.32L64.44-5.06L68.21-15.32L51.74-25.36L47.62-15.32Z"/>
   <path class="monochrome-3 multicolor-3:custom hierarchical-3:tertiary SFSymbolsPreviewWireframe" d="M6.44-64.86C8.08-68.12 13.5-73.93 22.04-71.16L19.26-63.31L19.12-63.36C15.74-64.62 14.26-63.43 12.83-60.01C10.67-54.82 12.3-52.44 13.73-51.9L47.19-39.27C53.51-36.67 53.35-31.52 52.48-29.28L46.77-13.14L39.45-15.83L44.1-28.87C44.46-29.75 44.5-31.74 41.81-32.7L8.63-45.61C4.34-47.21 1.11-55.68 6.44-64.86ZM59.94-0.09L47.44-4.68L44.79 2.82L57.28 7.42L59.94-0.09Z"/>
   <path class="monochrome-4 multicolor-4:custom hierarchical-4:secondary SFSymbolsPreviewWireframe" d="M100.04-26.94L105.24-25.03L111.98-44.1L106.79-46.01L100.04-26.94Z"/>
   <path class="monochrome-5 multicolor-5:custom hierarchical-5:primary SFSymbolsPreviewWireframe" d="M107.96-49.31L25.09-79.78L15.98-54.04L98.85-23.57L107.96-49.31Z"/>
  </g>
  <g id="Regular-S" transform="matrix(1 0 0 1 1404.2 696)">
   <path class="monochrome-0 multicolor-0:custom hierarchical-0:secondary SFSymbolsPreviewWireframe" d="M38.5942-17.261L30.4842-20.242L25.0442-4.884L33.1542-1.903L38.5942-17.261Z"/>
   <path class="monochrome-1 multicolor-1:custom hierarchical-1:primary SFSymbolsPreviewWireframe" d="M50.0342-30.023L50.0342-30.023C46.7742-31.224 43.1642-29.498 41.9942-26.168L38.2842-15.708C37.1142-12.378 38.8042-8.705 42.0742-7.504L42.0742-7.504C45.3342-6.303 48.9442-8.029 50.1142-11.359L53.8142-21.819C54.9942-25.149 53.3042-28.822 50.0342-30.023Z"/>
   <path class="monochrome-2 multicolor-2:custom hierarchical-2:secondary SFSymbolsPreviewWireframe" d="M38.0742-19.403L51.2542-11.371L54.2042-19.403L41.3042-27.264L38.0742-19.403Z"/>
   <path class="monochrome-3 multicolor-3:custom hierarchical-3:tertiary SFSymbolsPreviewWireframe" d="M5.83423-58.197C7.12423-60.749 11.3642-65.294 18.0442-63.126L15.8742-56.976L15.7642-57.02C13.1142-58.008 11.9542-57.076 10.8442-54.395C9.14423-50.333 10.4242-48.468 11.5442-48.043L37.7342-38.157C42.6842-36.118 42.5642-32.092 41.8842-30.335L37.4142-17.694L31.6842-19.8L35.3242-30.016C35.6042-30.702 35.6342-32.262 33.5242-33.013L7.54423-43.123C4.19423-44.375 1.66423-51.004 5.83423-58.197ZM47.7242-7.475L37.9342-11.073L35.8642-5.197L45.6442-1.6L47.7242-7.475Z"/>
   <path class="monochrome-4 multicolor-4:custom hierarchical-4:secondary SFSymbolsPreviewWireframe" d="M79.1242-28.5L83.1942-27.005L88.4742-41.936L84.4142-43.431L79.1242-28.5Z"/>
   <path class="monochrome-5 multicolor-5:custom hierarchical-5:primary SFSymbolsPreviewWireframe" d="M85.3242-46.016L20.4342-69.874L13.3042-49.722L78.1942-25.865L85.3242-46.016Z"/>
  </g>
 </g>
</svg>
