<?xml version="1.0" encoding="UTF-8"?>
<!--Generator: Apple Native CoreSVG 232.5-->
<!DOCTYPE svg
PUBLIC "-//W3C//DTD SVG 1.1//EN"
       "http://www.w3.org/Graphics/SVG/1.1/DTD/svg11.dtd">
<svg version="1.1" xmlns="http://www.w3.org/2000/svg" xmlns:xlink="http://www.w3.org/1999/xlink" width="3300" height="2200">
 <!--glyph: "", point size: 100.0, font version: "19.2d2e1", template writer version: "128"-->
 <style>.monochrome-0 {-sfsymbols-motion-group:7}
.monochrome-1 {-sfsymbols-motion-group:6}
.monochrome-2 {opacity:0.0;-sfsymbols-clear-behind:true;-sfsymbols-motion-group:5}
.monochrome-3 {-sfsymbols-motion-group:4}
.monochrome-4 {-sfsymbols-motion-group:3}
.monochrome-5 {-sfsymbols-motion-group:2}
.monochrome-6 {opacity:0.0;-sfsymbols-clear-behind:true;-sfsymbols-motion-group:1}
.monochrome-7 {-sfsymbols-motion-group:0}

.multicolor-0:custom {fill:#4D4C4B;-sfsymbols-motion-group:7}
.multicolor-1:custom {fill:#7040FE;-sfsymbols-motion-group:6}
.multicolor-2:custom {fill:#7040FE;-sfsymbols-motion-group:5}
.multicolor-3:custom {fill:#4D4C4B;-sfsymbols-motion-group:4}
.multicolor-4:custom {fill:#F5FFE2;-sfsymbols-motion-group:3}
.multicolor-5:custom {fill:#4D4C4B;-sfsymbols-motion-group:2}
.multicolor-6:custom {fill:#7B7B7A;-sfsymbols-clear-behind:true;-sfsymbols-motion-group:1}
.multicolor-7:custom {fill:#F5FFE2;-sfsymbols-motion-group:0}

.hierarchical-0:secondary {-sfsymbols-motion-group:7}
.hierarchical-1:tertiary {-sfsymbols-motion-group:6}
.hierarchical-2:tertiary {-sfsymbols-motion-group:5}
.hierarchical-3:secondary {-sfsymbols-motion-group:4}
.hierarchical-4:primary {-sfsymbols-motion-group:3}
.hierarchical-5:secondary {-sfsymbols-motion-group:2}
.hierarchical-6:tertiary {-sfsymbols-clear-behind:true;-sfsymbols-motion-group:1}
.hierarchical-7:primary {-sfsymbols-motion-group:0}

.SFSymbolsPreviewWireframe {fill:none;opacity:1.0;stroke:black;stroke-width:0.5}
</style>
 <g id="Notes">
  <rect height="2200" id="artboard" style="fill:white;opacity:1" width="3300" x="0" y="0"/>
  <line style="fill:none;stroke:black;opacity:1;stroke-width:0.5;" x1="263" x2="3036" y1="292" y2="292"/>
  <text style="stroke:none;fill:black;font-family:sans-serif;font-size:13;font-weight:bold;" transform="matrix(1 0 0 1 263 322)">Weight/Scale Variations</text>
  <text style="stroke:none;fill:black;font-family:sans-serif;font-size:13;text-anchor:middle;" transform="matrix(1 0 0 1 559.711 322)">Ultralight</text>
  <text style="stroke:none;fill:black;font-family:sans-serif;font-size:13;text-anchor:middle;" transform="matrix(1 0 0 1 856.422 322)">Thin</text>
  <text style="stroke:none;fill:black;font-family:sans-serif;font-size:13;text-anchor:middle;" transform="matrix(1 0 0 1 1153.13 322)">Light</text>
  <text style="stroke:none;fill:black;font-family:sans-serif;font-size:13;text-anchor:middle;" transform="matrix(1 0 0 1 1449.84 322)">Regular</text>
  <text style="stroke:none;fill:black;font-family:sans-serif;font-size:13;text-anchor:middle;" transform="matrix(1 0 0 1 1746.56 322)">Medium</text>
  <text style="stroke:none;fill:black;font-family:sans-serif;font-size:13;text-anchor:middle;" transform="matrix(1 0 0 1 2043.27 322)">Semibold</text>
  <text style="stroke:none;fill:black;font-family:sans-serif;font-size:13;text-anchor:middle;" transform="matrix(1 0 0 1 2339.98 322)">Bold</text>
  <text style="stroke:none;fill:black;font-family:sans-serif;font-size:13;text-anchor:middle;" transform="matrix(1 0 0 1 2636.69 322)">Heavy</text>
  <text style="stroke:none;fill:black;font-family:sans-serif;font-size:13;text-anchor:middle;" transform="matrix(1 0 0 1 2933.4 322)">Black</text>
  <line style="fill:none;stroke:black;opacity:1;stroke-width:0.5;" x1="263" x2="3036" y1="1903" y2="1903"/>
  <g transform="matrix(0.2 0 0 0.2 263 1933)">
   <path d="m46.2402 4.15039c21.5332 0 39.4531-17.8711 39.4531-39.4043s-17.9688-39.4043-39.502-39.4043c-21.4844 0-39.3555 17.8711-39.3555 39.4043s17.9199 39.4043 39.4043 39.4043Zm0-7.42188c-17.7246 0-31.8848-14.209-31.8848-31.9824s14.1113-31.9824 31.8359-31.9824c17.7734 0 32.0312 14.209 32.0312 31.9824s-14.209 31.9824-31.9824 31.9824Zm-17.9688-31.9824c0 2.14844 1.51367 3.61328 3.75977 3.61328h10.498v10.5957c0 2.19727 1.46484 3.71094 3.61328 3.71094 2.24609 0 3.71094-1.51367 3.71094-3.71094v-10.5957h10.5957c2.19727 0 3.71094-1.46484 3.71094-3.61328 0-2.19727-1.51367-3.71094-3.71094-3.71094h-10.5957v-10.5469c0-2.24609-1.46484-3.75977-3.71094-3.75977-2.14844 0-3.61328 1.51367-3.61328 3.75977v10.5469h-10.498c-2.24609 0-3.75977 1.51367-3.75977 3.71094Z"/>
  </g>
  <g transform="matrix(0.2 0 0 0.2 281.506 1933)">
   <path d="m58.5449 14.5508c27.2461 0 49.8047-22.6074 49.8047-49.8047 0-27.2461-22.6074-49.8047-49.8535-49.8047-27.1973 0-49.7559 22.5586-49.7559 49.8047 0 27.1973 22.6074 49.8047 49.8047 49.8047Zm0-8.30078c-23.0469 0-41.4551-18.457-41.4551-41.5039s18.3594-41.5039 41.4062-41.5039 41.5527 18.457 41.5527 41.5039-18.457 41.5039-41.5039 41.5039Zm-22.6562-41.5039c0 2.39258 1.66016 4.00391 4.15039 4.00391h14.3555v14.4043c0 2.44141 1.66016 4.15039 4.05273 4.15039 2.44141 0 4.15039-1.66016 4.15039-4.15039v-14.4043h14.4043c2.44141 0 4.15039-1.61133 4.15039-4.00391 0-2.44141-1.70898-4.15039-4.15039-4.15039h-14.4043v-14.3555c0-2.49023-1.70898-4.19922-4.15039-4.19922-2.39258 0-4.05273 1.70898-4.05273 4.19922v14.3555h-14.3555c-2.49023 0-4.15039 1.70898-4.15039 4.15039Z"/>
  </g>
  <g transform="matrix(0.2 0 0 0.2 304.924 1933)">
   <path d="m74.8535 28.3203c34.8145 0 63.623-28.8086 63.623-63.5742 0-34.8145-28.8574-63.623-63.6719-63.623-34.7656 0-63.5254 28.8086-63.5254 63.623 0 34.7656 28.8086 63.5742 63.5742 63.5742Zm0-9.08203c-30.1758 0-54.4434-24.3164-54.4434-54.4922 0-30.2246 24.2188-54.4922 54.3945-54.4922 30.2246 0 54.541 24.2676 54.541 54.4922 0 30.1758-24.2676 54.4922-54.4922 54.4922Zm-28.8574-54.4922c0 2.58789 1.85547 4.39453 4.58984 4.39453h19.7266v19.7754c0 2.68555 1.85547 4.58984 4.44336 4.58984 2.68555 0 4.54102-1.85547 4.54102-4.58984v-19.7754h19.7754c2.68555 0 4.58984-1.80664 4.58984-4.39453 0-2.73438-1.85547-4.58984-4.58984-4.58984h-19.7754v-19.7266c0-2.73438-1.85547-4.63867-4.54102-4.63867-2.58789 0-4.44336 1.9043-4.44336 4.63867v19.7266h-19.7266c-2.73438 0-4.58984 1.85547-4.58984 4.58984Z"/>
  </g>
  <text style="stroke:none;fill:black;font-family:sans-serif;font-size:13;font-weight:bold;" transform="matrix(1 0 0 1 263 1953)">Design Variations</text>
  <text style="stroke:none;fill:black;font-family:sans-serif;font-size:13;" transform="matrix(1 0 0 1 263 1971)">Symbols are supported in up to nine weights and three scales.</text>
  <text style="stroke:none;fill:black;font-family:sans-serif;font-size:13;" transform="matrix(1 0 0 1 263 1989)">For optimal layout with text and other symbols, vertically align</text>
  <text style="stroke:none;fill:black;font-family:sans-serif;font-size:13;" transform="matrix(1 0 0 1 263 2007)">symbols with the adjacent text.</text>
  <line style="fill:none;stroke:#00AEEF;stroke-width:0.5;opacity:1.0;" x1="776" x2="776" y1="1919" y2="1933"/>
  <g transform="matrix(0.2 0 0 0.2 776 1933)">
   <path d="m16.5527 0.78125c2.58789 0 3.85742-0.976562 4.78516-3.71094l6.29883-17.2363h28.8086l6.29883 17.2363c0.927734 2.73438 2.19727 3.71094 4.73633 3.71094 2.58789 0 4.24805-1.5625 4.24805-4.00391 0-0.830078-0.146484-1.61133-0.537109-2.63672l-22.9004-60.9863c-1.12305-2.97852-3.125-4.49219-6.25-4.49219-3.02734 0-5.07812 1.46484-6.15234 4.44336l-22.9004 61.084c-0.390625 1.02539-0.537109 1.80664-0.537109 2.63672 0 2.44141 1.5625 3.95508 4.10156 3.95508Zm13.4766-28.3691 11.8652-32.8613h0.244141l11.8652 32.8613Z"/>
  </g>
  <line style="fill:none;stroke:#00AEEF;stroke-width:0.5;opacity:1.0;" x1="792.836" x2="792.836" y1="1919" y2="1933"/>
  <text style="stroke:none;fill:black;font-family:sans-serif;font-size:13;font-weight:bold;" transform="matrix(1 0 0 1 776 1953)">Margins</text>
  <text style="stroke:none;fill:black;font-family:sans-serif;font-size:13;" transform="matrix(1 0 0 1 776 1971)">Leading and trailing margins on the left and right side of each symbol</text>
  <text style="stroke:none;fill:black;font-family:sans-serif;font-size:13;" transform="matrix(1 0 0 1 776 1989)">can be adjusted by modifying the x-location of the margin guidelines.</text>
  <text style="stroke:none;fill:black;font-family:sans-serif;font-size:13;" transform="matrix(1 0 0 1 776 2007)">Modifications are automatically applied proportionally to all</text>
  <text style="stroke:none;fill:black;font-family:sans-serif;font-size:13;" transform="matrix(1 0 0 1 776 2025)">scales and weights.</text>
  <g transform="matrix(0.2 0 0 0.2 1289 1933)">
   <path d="m14.209 9.32617 8.49609 8.54492c4.29688 4.3457 9.22852 4.05273 13.8672-1.07422l53.4668-58.9355-4.83398-4.88281-53.0762 58.3984c-1.75781 2.00195-3.41797 2.49023-5.76172 0.146484l-5.85938-5.81055c-2.34375-2.29492-1.80664-4.00391 0.195312-5.81055l57.373-54.0039-4.88281-4.83398-57.959 54.4434c-4.93164 4.58984-5.32227 9.47266-1.02539 13.8184Zm32.0801-90.9668c-2.09961 2.05078-2.24609 4.93164-1.07422 6.88477 1.17188 1.80664 3.4668 2.97852 6.68945 2.14844 7.32422-1.70898 14.9414-2.00195 22.0703 2.68555l-2.92969 7.27539c-1.70898 4.15039-0.830078 7.08008 1.85547 9.81445l11.4746 11.5723c2.44141 2.44141 4.49219 2.53906 7.32422 2.05078l5.32227-0.976562 3.32031 3.36914-0.195312 2.7832c-0.195312 2.49023 0.439453 4.39453 2.88086 6.78711l3.80859 3.71094c2.39258 2.39258 5.46875 2.53906 7.8125 0.195312l14.5508-14.5996c2.34375-2.34375 2.24609-5.32227-0.146484-7.71484l-3.85742-3.80859c-2.39258-2.39258-4.24805-3.17383-6.64062-2.97852l-2.88086 0.244141-3.22266-3.17383 1.2207-5.61523c0.634766-2.83203-0.146484-5.0293-3.07617-7.95898l-10.9863-10.9375c-16.6992-16.6016-38.8672-16.2109-53.3203-1.75781Zm7.4707 1.85547c12.1582-8.88672 28.6133-7.37305 39.7461 3.75977l12.1582 12.0605c1.17188 1.17188 1.36719 2.09961 1.02539 3.80859l-1.61133 7.42188 7.51953 7.42188 4.93164-0.292969c1.26953-0.0488281 1.66016 0.0488281 2.63672 1.02539l2.88086 2.88086-12.207 12.207-2.88086-2.88086c-0.976562-0.976562-1.12305-1.36719-1.07422-2.68555l0.341797-4.88281-7.4707-7.42188-7.61719 1.26953c-1.61133 0.341797-2.34375 0.195312-3.56445-0.976562l-10.0098-10.0098c-1.26953-1.17188-1.41602-2.00195-0.634766-3.85742l4.39453-10.4492c-7.8125-7.27539-17.9688-10.4004-28.125-7.42188-0.78125 0.195312-1.07422-0.439453-0.439453-0.976562Z"/>
  </g>
  <text style="stroke:none;fill:black;font-family:sans-serif;font-size:13;font-weight:bold;" transform="matrix(1 0 0 1 1289 1953)">Exporting</text>
  <text style="stroke:none;fill:black;font-family:sans-serif;font-size:13;" transform="matrix(1 0 0 1 1289 1971)">Symbols should be outlined when exporting to ensure the</text>
  <text style="stroke:none;fill:black;font-family:sans-serif;font-size:13;" transform="matrix(1 0 0 1 1289 1989)">design is preserved when submitting to Xcode.</text>
  <text id="template-version" style="stroke:none;fill:black;font-family:sans-serif;font-size:13;text-anchor:end;" transform="matrix(1 0 0 1 3036 1933)">Template v.5.0</text>
  <text style="stroke:none;fill:black;font-family:sans-serif;font-size:13;text-anchor:end;" transform="matrix(1 0 0 1 3036 1951)">Requires Xcode 15 or greater</text>
  <text id="descriptive-name" style="stroke:none;fill:black;font-family:sans-serif;font-size:13;text-anchor:end;" transform="matrix(1 0 0 1 3036 1969)">Generated from weapon.class.brush</text>
  <text style="stroke:none;fill:black;font-family:sans-serif;font-size:13;text-anchor:end;" transform="matrix(1 0 0 1 3036 1987)">Typeset at 100.0 points</text>
  <text style="stroke:none;fill:black;font-family:sans-serif;font-size:13;" transform="matrix(1 0 0 1 263 726)">Small</text>
  <text style="stroke:none;fill:black;font-family:sans-serif;font-size:13;" transform="matrix(1 0 0 1 263 1156)">Medium</text>
  <text style="stroke:none;fill:black;font-family:sans-serif;font-size:13;" transform="matrix(1 0 0 1 263 1586)">Large</text>
 </g>
 <g id="Guides">
  <g id="H-reference" style="fill:#27AAE1;stroke:none;" transform="matrix(1 0 0 1 339 696)">
   <path d="M0.993654 0L3.63775 0L29.3281-67.1323L30.0303-67.1323L30.0303-70.459L28.1226-70.459ZM11.6885-24.4799L46.9815-24.4799L46.2315-26.7285L12.4385-26.7285ZM55.1196 0L57.7637 0L30.6382-70.459L29.4326-70.459L29.4326-67.1323Z"/>
  </g>
  <line id="Baseline-S" style="fill:none;stroke:#27AAE1;opacity:1;stroke-width:0.5;" x1="263" x2="3036" y1="696" y2="696"/>
  <line id="Capline-S" style="fill:none;stroke:#27AAE1;opacity:1;stroke-width:0.5;" x1="263" x2="3036" y1="625.541" y2="625.541"/>
  <g id="H-reference" style="fill:#27AAE1;stroke:none;" transform="matrix(1 0 0 1 339 1126)">
   <path d="M0.993654 0L3.63775 0L29.3281-67.1323L30.0303-67.1323L30.0303-70.459L28.1226-70.459ZM11.6885-24.4799L46.9815-24.4799L46.2315-26.7285L12.4385-26.7285ZM55.1196 0L57.7637 0L30.6382-70.459L29.4326-70.459L29.4326-67.1323Z"/>
  </g>
  <line id="Baseline-M" style="fill:none;stroke:#27AAE1;opacity:1;stroke-width:0.5;" x1="263" x2="3036" y1="1126" y2="1126"/>
  <line id="Capline-M" style="fill:none;stroke:#27AAE1;opacity:1;stroke-width:0.5;" x1="263" x2="3036" y1="1055.54" y2="1055.54"/>
  <g id="H-reference" style="fill:#27AAE1;stroke:none;" transform="matrix(1 0 0 1 339 1556)">
   <path d="M0.993654 0L3.63775 0L29.3281-67.1323L30.0303-67.1323L30.0303-70.459L28.1226-70.459ZM11.6885-24.4799L46.9815-24.4799L46.2315-26.7285L12.4385-26.7285ZM55.1196 0L57.7637 0L30.6382-70.459L29.4326-70.459L29.4326-67.1323Z"/>
  </g>
  <line id="Baseline-L" style="fill:none;stroke:#27AAE1;opacity:1;stroke-width:0.5;" x1="263" x2="3036" y1="1556" y2="1556"/>
  <line id="Capline-L" style="fill:none;stroke:#27AAE1;opacity:1;stroke-width:0.5;" x1="263" x2="3036" y1="1485.54" y2="1485.54"/>
  <line id="left-margin-Regular-M" style="fill:none;stroke:#00AEEF;stroke-width:0.5;opacity:1.0;" x1="1392.45" x2="1392.45" y1="1030.79" y2="1150.12"/>
  <line id="right-margin-Regular-M" style="fill:none;stroke:#00AEEF;stroke-width:0.5;opacity:1.0;" x1="1507.24" x2="1507.24" y1="1030.79" y2="1150.12"/>
 </g>
 <g id="Symbols">
  <g id="Regular-L" transform="matrix(1 0 0 1 1378.6 1556)">
   <path class="SFSymbolsPreviewWireframe" d="M70.71-52.29L77.62-46.55C78.76-46.92 83.44-47.66 93.06-47.63C105.08-47.59 108.1-44.8 110.15-43.19C111.86-41.86 115.77-40.77 117.83-40.77C126.25-40.77 133.23-56.47 133.23-69.65C133.23-82.83 129.35-82.9 108.42-82.9C85.2-82.9 71.22-63.72 70.71-52.29ZM45.58-15.85L45.58-15.85L45.58-15.85L45.58-15.85ZM76-12.65L70.04-18.38L60.48-8.82L66.44-3.09L76-12.65Z"/>
   <path class="monochrome-0 multicolor-0:custom hierarchical-0:secondary SFSymbolsPreviewWireframe" d="M35.02 3.5L23.51-7.57L10.06 5.88L21.57 16.95L35.02 3.5ZM76-12.65L70.04-18.38L60.48-8.82L66.44-3.09L76-12.65Z"/>
   <path class="monochrome-1 multicolor-1:custom hierarchical-1:tertiary SFSymbolsPreviewWireframe" d="M60.48-8.82L66.44-3.09C55.21-8.42 43.04-4.26 33.74 2.27L25.47-5.68C30.64-9.95 44.87-16.55 60.48-8.82ZM61.82-24.99C66.27-25.72 69.15-20.89 70.04-18.38L75.33-13.3L76-12.65C76.17-13.05 75.95-14.25 75.33-16.41C75.02-17.46 75.33-19.11 77.49-21.45C78.29-22.33 80.09-24.79 80.09-30.54C80.09-38.13 80.04-43.66 77.62-46.55L75.56-40.75C76.27-39.02 77.22-34.6 75.33-30.79C73.43-26.99 71.01-26.06 70.04-26.07C69.04-26.03 66.89-26.26 66.34-27.54L61.82-24.99Z"/>
   <path class="monochrome-2 multicolor-2:custom hierarchical-2:tertiary SFSymbolsPreviewWireframe" d="M63.59-25.99L59.19-23.51L51.06-30.27L52.83-34.94L63.59-25.99Z"/>
   <path class="monochrome-3 multicolor-3:custom hierarchical-3:secondary SFSymbolsPreviewWireframe" d="M49.39-18L47.11-19.89L44.44-16.8L46.72-14.91L49.39-18Z"/>
   <path class="monochrome-4 multicolor-4:custom hierarchical-4:primary SFSymbolsPreviewWireframe" d="M47.11-19.89L51.06-30.27L59.19-23.51L49.39-18L47.11-19.89L47.11-19.89ZM52.83-34.94L63.59-25.99L73.32-31.47L56.74-45.25L52.83-34.94Z"/>
   <path class="monochrome-5 multicolor-5:custom hierarchical-5:secondary SFSymbolsPreviewWireframe" d="M64.74-48.44L75.2-39.75L73.32-31.47L56.74-45.25L64.74-48.44ZM70.71-52.29L77.62-46.55L75.2-39.75L64.74-48.44L70.71-52.29Z"/>
   <path class="monochrome-6 multicolor-6:custom hierarchical-6:tertiary SFSymbolsPreviewWireframe" d="M75.47-40.5L65.41-48.87L64.74-48.44L63.99-48.14L75.02-38.97L75.2-39.75L75.47-40.5Z"/>
   <path class="monochrome-7 multicolor-7:custom hierarchical-7:primary SFSymbolsPreviewWireframe" d="M70.71-52.29L77.62-46.55C78.76-46.92 83.44-47.66 93.06-47.63C105.08-47.59 108.1-44.8 110.15-43.19C111.86-41.86 115.77-40.77 117.83-40.77C126.25-40.77 133.23-56.47 133.23-69.65C133.23-82.83 129.35-82.9 108.42-82.9C85.2-82.9 71.22-63.72 70.71-52.29Z"/>
  </g>
  <g id="Regular-M" transform="matrix(1 0 0 1 1392.45 1126)">
   <path class="SFSymbolsPreviewWireframe" d="M57.07-48.78L62.43-44.33C63.31-44.62 66.94-45.19 74.4-45.16C83.72-45.14 86.06-42.97 87.65-41.72C88.97-40.69 92-39.85 93.61-39.85C100.13-39.85 105.54-52.02 105.54-62.24C105.54-72.45 102.53-72.51 86.31-72.51C68.31-72.51 57.47-57.64 57.07-48.78ZM37.6-20.53L37.6-20.53L37.6-20.53L37.6-20.53ZM61.18-18.05L56.56-22.49L49.14-15.08L53.76-10.64L61.18-18.05Z"/>
   <path class="monochrome-0 multicolor-0:custom hierarchical-0:secondary SFSymbolsPreviewWireframe" d="M29.41-5.53L20.48-14.11L10.06-3.69L18.98 4.89L29.41-5.53ZM61.18-18.05L56.56-22.49L49.14-15.08L53.76-10.64L61.18-18.05Z"/>
   <path class="monochrome-1 multicolor-1:custom hierarchical-1:tertiary SFSymbolsPreviewWireframe" d="M49.14-15.08L53.76-10.64C45.06-14.77 35.63-11.55 28.42-6.48L22.01-12.64C26.01-15.95 37.04-21.07 49.14-15.08ZM50.18-27.62C53.63-28.18 55.87-24.44 56.56-22.49L60.66-18.55L61.18-18.05C61.31-18.36 61.14-19.29 60.66-20.96C60.42-21.77 60.66-23.05 62.33-24.87C62.95-25.55 64.35-27.46 64.35-31.92C64.35-37.8 64.31-42.09 62.43-44.33L60.83-39.83C61.39-38.49 62.12-35.06 60.66-32.11C59.19-29.16 57.31-28.44 56.56-28.45C55.78-28.42 54.11-28.6 53.68-29.59L50.18-27.62Z"/>
   <path class="monochrome-2 multicolor-2:custom hierarchical-2:tertiary SFSymbolsPreviewWireframe" d="M51.56-28.39L48.15-26.47L41.84-31.71L43.21-35.33L51.56-28.39Z"/>
   <path class="monochrome-3 multicolor-3:custom hierarchical-3:secondary SFSymbolsPreviewWireframe" d="M40.55-22.19L38.78-23.66L36.71-21.27L38.48-19.8L40.55-22.19Z"/>
   <path class="monochrome-4 multicolor-4:custom hierarchical-4:primary SFSymbolsPreviewWireframe" d="M38.78-23.66L41.84-31.71L48.15-26.47L40.55-22.19L38.78-23.66L38.78-23.66ZM43.21-35.33L51.56-28.39L59.1-32.64L46.25-43.32L43.21-35.33Z"/>
   <path class="monochrome-5 multicolor-5:custom hierarchical-5:secondary SFSymbolsPreviewWireframe" d="M52.45-45.79L60.56-39.05L59.1-32.64L46.25-43.32L52.45-45.79ZM57.07-48.78L62.43-44.33L60.56-39.05L52.45-45.79L57.07-48.78Z"/>
   <path class="monochrome-6 multicolor-6:custom hierarchical-6:tertiary SFSymbolsPreviewWireframe" d="M60.76-39.64L52.97-46.12L52.45-45.79L51.87-45.56L60.42-38.45L60.56-39.05L60.76-39.64Z"/>
   <path class="monochrome-7 multicolor-7:custom hierarchical-7:primary SFSymbolsPreviewWireframe" d="M57.07-48.78L62.43-44.33C63.31-44.62 66.94-45.19 74.4-45.16C83.72-45.14 86.06-42.97 87.65-41.72C88.97-40.69 92-39.85 93.61-39.85C100.13-39.85 105.54-52.02 105.54-62.24C105.54-72.45 102.53-72.51 86.31-72.51C68.31-72.51 57.47-57.64 57.07-48.78Z"/>
  </g>
  <g id="Regular-S" transform="matrix(1 0 0 1 1402.81 696)">
   <path class="SFSymbolsPreviewWireframe" d="M46.88-45.603L51.07-42.117C51.76-42.343 54.6-42.79 60.44-42.772C67.74-42.751 69.57-41.054 70.82-40.077C71.85-39.269 74.23-38.611 75.48-38.611C80.59-38.611 84.82-48.141 84.82-56.139C84.82-64.138 82.47-64.181 69.76-64.181C55.67-64.181 47.19-52.539 46.88-45.603ZM31.62-23.486L31.62-23.485L31.63-23.486L31.62-23.486ZM50.09-21.542L46.47-25.02L40.67-19.214L44.28-15.736L50.09-21.542Z"/>
   <path class="monochrome-0 multicolor-0:custom hierarchical-0:secondary SFSymbolsPreviewWireframe" d="M25.21-11.739L18.23-18.458L10.06-10.294L17.05-3.576L25.21-11.739ZM50.09-21.542L46.47-25.02L40.67-19.214L44.28-15.736L50.09-21.542Z"/>
   <path class="monochrome-1 multicolor-1:custom hierarchical-1:tertiary SFSymbolsPreviewWireframe" d="M40.67-19.214L44.28-15.736C37.47-18.971 30.08-16.449 24.44-12.485L19.42-17.309C22.55-19.901 31.19-23.91 40.67-19.214ZM41.48-29.033C44.18-29.477 45.93-26.542 46.47-25.02L49.68-21.934L50.09-21.542C50.19-21.785 50.06-22.512 49.68-23.822C49.49-24.458 49.68-25.46 50.99-26.883C51.48-27.414 52.57-28.91 52.57-32.402C52.57-37.005 52.54-40.362 51.07-42.117L49.82-38.599C50.25-37.547 50.83-34.864 49.68-32.553C48.53-30.242 47.06-29.679 46.47-29.686C45.86-29.661 44.56-29.804 44.22-30.576L41.48-29.033Z"/>
   <path class="monochrome-2 multicolor-2:custom hierarchical-2:tertiary SFSymbolsPreviewWireframe" d="M42.56-29.639L39.88-28.134L34.95-32.238L36.02-35.07L42.56-29.639Z"/>
   <path class="monochrome-3 multicolor-3:custom hierarchical-3:secondary SFSymbolsPreviewWireframe" d="M33.94-24.786L32.55-25.935L30.93-24.06L32.32-22.911L33.94-24.786Z"/>
   <path class="monochrome-4 multicolor-4:custom hierarchical-4:primary SFSymbolsPreviewWireframe" d="M32.55-25.934L34.95-32.238L39.88-28.135L33.94-24.786L32.55-25.935L32.55-25.934ZM36.02-35.071L42.56-29.639L48.46-32.962L38.4-41.326L36.02-35.071Z"/>
   <path class="monochrome-5 multicolor-5:custom hierarchical-5:secondary SFSymbolsPreviewWireframe" d="M43.26-43.262L49.6-37.988L48.46-32.962L38.4-41.326L43.26-43.262ZM46.88-45.604L51.07-42.117L49.6-37.988L43.26-43.262L46.88-45.604Z"/>
   <path class="monochrome-6 multicolor-6:custom hierarchical-6:tertiary SFSymbolsPreviewWireframe" d="M49.76-38.447L43.66-43.522L43.26-43.262L42.8-43.08L49.49-37.515L49.6-37.988L49.76-38.447Z"/>
   <path class="monochrome-7 multicolor-7:custom hierarchical-7:primary SFSymbolsPreviewWireframe" d="M46.88-45.603L51.07-42.117C51.76-42.343 54.6-42.79 60.44-42.772C67.74-42.751 69.57-41.054 70.82-40.077C71.85-39.269 74.23-38.611 75.48-38.611C80.59-38.611 84.82-48.141 84.82-56.139C84.82-64.138 82.47-64.181 69.76-64.181C55.67-64.181 47.19-52.539 46.88-45.603Z"/>
  </g>
 </g>
</svg>
