<?xml version="1.0" encoding="UTF-8"?>
<!--Generator: Apple Native CoreSVG 232.5-->
<!DOCTYPE svg
PUBLIC "-//W3C//DTD SVG 1.1//EN"
       "http://www.w3.org/Graphics/SVG/1.1/DTD/svg11.dtd">
<svg version="1.1" xmlns="http://www.w3.org/2000/svg" xmlns:xlink="http://www.w3.org/1999/xlink" width="3300" height="2200">
 <!--glyph: "", point size: 100.0, font version: "19.2d2e1", template writer version: "128"-->
 <style>.monochrome-0 {-sfsymbols-motion-group:7}
.monochrome-1 {-sfsymbols-motion-group:6}
.monochrome-2 {opacity:0.0;-sfsymbols-clear-behind:true;-sfsymbols-motion-group:5}
.monochrome-3 {-sfsymbols-motion-group:4}
.monochrome-4 {-sfsymbols-motion-group:3}
.monochrome-5 {-sfsymbols-motion-group:2}
.monochrome-6 {-sfsymbols-motion-group:1}
.monochrome-7 {opacity:0.0;-sfsymbols-clear-behind:true;-sfsymbols-motion-group:0}

.multicolor-0:custom {fill:#F5FFE2;-sfsymbols-motion-group:7}
.multicolor-1:custom {fill:#C7CEC9;-sfsymbols-clear-behind:true;-sfsymbols-motion-group:6}
.multicolor-2:custom {fill:#C7CEC9;-sfsymbols-clear-behind:true;-sfsymbols-motion-group:5}
.multicolor-3:custom {fill:#4D4C4A;-sfsymbols-motion-group:4}
.multicolor-4:custom {fill:#C7CEC9;-sfsymbols-motion-group:3}
.multicolor-5:custom {fill:#4D4C4A;-sfsymbols-motion-group:2}
.multicolor-6:custom {fill:#4D4C4A;-sfsymbols-motion-group:1}
.multicolor-7:custom {fill:#DAC919;-sfsymbols-clear-behind:true;-sfsymbols-motion-group:0}

.hierarchical-0:primary {-sfsymbols-motion-group:7}
.hierarchical-1:secondary {-sfsymbols-clear-behind:true;-sfsymbols-motion-group:6}
.hierarchical-2:secondary {-sfsymbols-clear-behind:true;-sfsymbols-motion-group:5}
.hierarchical-3:primary {-sfsymbols-motion-group:4}
.hierarchical-4:secondary {-sfsymbols-motion-group:3}
.hierarchical-5:primary {-sfsymbols-motion-group:2}
.hierarchical-6:primary {-sfsymbols-motion-group:1}
.hierarchical-7:secondary {-sfsymbols-clear-behind:true;-sfsymbols-motion-group:0}

.SFSymbolsPreviewWireframe {fill:none;opacity:1.0;stroke:black;stroke-width:0.5}
</style>
 <g id="Notes">
  <rect height="2200" id="artboard" style="fill:white;opacity:1" width="3300" x="0" y="0"/>
  <line style="fill:none;stroke:black;opacity:1;stroke-width:0.5;" x1="263" x2="3036" y1="292" y2="292"/>
  <text style="stroke:none;fill:black;font-family:sans-serif;font-size:13;font-weight:bold;" transform="matrix(1 0 0 1 263 322)">Weight/Scale Variations</text>
  <text style="stroke:none;fill:black;font-family:sans-serif;font-size:13;text-anchor:middle;" transform="matrix(1 0 0 1 559.711 322)">Ultralight</text>
  <text style="stroke:none;fill:black;font-family:sans-serif;font-size:13;text-anchor:middle;" transform="matrix(1 0 0 1 856.422 322)">Thin</text>
  <text style="stroke:none;fill:black;font-family:sans-serif;font-size:13;text-anchor:middle;" transform="matrix(1 0 0 1 1153.13 322)">Light</text>
  <text style="stroke:none;fill:black;font-family:sans-serif;font-size:13;text-anchor:middle;" transform="matrix(1 0 0 1 1449.84 322)">Regular</text>
  <text style="stroke:none;fill:black;font-family:sans-serif;font-size:13;text-anchor:middle;" transform="matrix(1 0 0 1 1746.56 322)">Medium</text>
  <text style="stroke:none;fill:black;font-family:sans-serif;font-size:13;text-anchor:middle;" transform="matrix(1 0 0 1 2043.27 322)">Semibold</text>
  <text style="stroke:none;fill:black;font-family:sans-serif;font-size:13;text-anchor:middle;" transform="matrix(1 0 0 1 2339.98 322)">Bold</text>
  <text style="stroke:none;fill:black;font-family:sans-serif;font-size:13;text-anchor:middle;" transform="matrix(1 0 0 1 2636.69 322)">Heavy</text>
  <text style="stroke:none;fill:black;font-family:sans-serif;font-size:13;text-anchor:middle;" transform="matrix(1 0 0 1 2933.4 322)">Black</text>
  <line style="fill:none;stroke:black;opacity:1;stroke-width:0.5;" x1="263" x2="3036" y1="1903" y2="1903"/>
  <g transform="matrix(0.2 0 0 0.2 263 1933)">
   <path d="m46.2402 4.15039c21.5332 0 39.4531-17.8711 39.4531-39.4043s-17.9688-39.4043-39.502-39.4043c-21.4844 0-39.3555 17.8711-39.3555 39.4043s17.9199 39.4043 39.4043 39.4043Zm0-7.42188c-17.7246 0-31.8848-14.209-31.8848-31.9824s14.1113-31.9824 31.8359-31.9824c17.7734 0 32.0312 14.209 32.0312 31.9824s-14.209 31.9824-31.9824 31.9824Zm-17.9688-31.9824c0 2.14844 1.51367 3.61328 3.75977 3.61328h10.498v10.5957c0 2.19727 1.46484 3.71094 3.61328 3.71094 2.24609 0 3.71094-1.51367 3.71094-3.71094v-10.5957h10.5957c2.19727 0 3.71094-1.46484 3.71094-3.61328 0-2.19727-1.51367-3.71094-3.71094-3.71094h-10.5957v-10.5469c0-2.24609-1.46484-3.75977-3.71094-3.75977-2.14844 0-3.61328 1.51367-3.61328 3.75977v10.5469h-10.498c-2.24609 0-3.75977 1.51367-3.75977 3.71094Z"/>
  </g>
  <g transform="matrix(0.2 0 0 0.2 281.506 1933)">
   <path d="m58.5449 14.5508c27.2461 0 49.8047-22.6074 49.8047-49.8047 0-27.2461-22.6074-49.8047-49.8535-49.8047-27.1973 0-49.7559 22.5586-49.7559 49.8047 0 27.1973 22.6074 49.8047 49.8047 49.8047Zm0-8.30078c-23.0469 0-41.4551-18.457-41.4551-41.5039s18.3594-41.5039 41.4062-41.5039 41.5527 18.457 41.5527 41.5039-18.457 41.5039-41.5039 41.5039Zm-22.6562-41.5039c0 2.39258 1.66016 4.00391 4.15039 4.00391h14.3555v14.4043c0 2.44141 1.66016 4.15039 4.05273 4.15039 2.44141 0 4.15039-1.66016 4.15039-4.15039v-14.4043h14.4043c2.44141 0 4.15039-1.61133 4.15039-4.00391 0-2.44141-1.70898-4.15039-4.15039-4.15039h-14.4043v-14.3555c0-2.49023-1.70898-4.19922-4.15039-4.19922-2.39258 0-4.05273 1.70898-4.05273 4.19922v14.3555h-14.3555c-2.49023 0-4.15039 1.70898-4.15039 4.15039Z"/>
  </g>
  <g transform="matrix(0.2 0 0 0.2 304.924 1933)">
   <path d="m74.8535 28.3203c34.8145 0 63.623-28.8086 63.623-63.5742 0-34.8145-28.8574-63.623-63.6719-63.623-34.7656 0-63.5254 28.8086-63.5254 63.623 0 34.7656 28.8086 63.5742 63.5742 63.5742Zm0-9.08203c-30.1758 0-54.4434-24.3164-54.4434-54.4922 0-30.2246 24.2188-54.4922 54.3945-54.4922 30.2246 0 54.541 24.2676 54.541 54.4922 0 30.1758-24.2676 54.4922-54.4922 54.4922Zm-28.8574-54.4922c0 2.58789 1.85547 4.39453 4.58984 4.39453h19.7266v19.7754c0 2.68555 1.85547 4.58984 4.44336 4.58984 2.68555 0 4.54102-1.85547 4.54102-4.58984v-19.7754h19.7754c2.68555 0 4.58984-1.80664 4.58984-4.39453 0-2.73438-1.85547-4.58984-4.58984-4.58984h-19.7754v-19.7266c0-2.73438-1.85547-4.63867-4.54102-4.63867-2.58789 0-4.44336 1.9043-4.44336 4.63867v19.7266h-19.7266c-2.73438 0-4.58984 1.85547-4.58984 4.58984Z"/>
  </g>
  <text style="stroke:none;fill:black;font-family:sans-serif;font-size:13;font-weight:bold;" transform="matrix(1 0 0 1 263 1953)">Design Variations</text>
  <text style="stroke:none;fill:black;font-family:sans-serif;font-size:13;" transform="matrix(1 0 0 1 263 1971)">Symbols are supported in up to nine weights and three scales.</text>
  <text style="stroke:none;fill:black;font-family:sans-serif;font-size:13;" transform="matrix(1 0 0 1 263 1989)">For optimal layout with text and other symbols, vertically align</text>
  <text style="stroke:none;fill:black;font-family:sans-serif;font-size:13;" transform="matrix(1 0 0 1 263 2007)">symbols with the adjacent text.</text>
  <line style="fill:none;stroke:#00AEEF;stroke-width:0.5;opacity:1.0;" x1="776" x2="776" y1="1919" y2="1933"/>
  <g transform="matrix(0.2 0 0 0.2 776 1933)">
   <path d="m16.5527 0.78125c2.58789 0 3.85742-0.976562 4.78516-3.71094l6.29883-17.2363h28.8086l6.29883 17.2363c0.927734 2.73438 2.19727 3.71094 4.73633 3.71094 2.58789 0 4.24805-1.5625 4.24805-4.00391 0-0.830078-0.146484-1.61133-0.537109-2.63672l-22.9004-60.9863c-1.12305-2.97852-3.125-4.49219-6.25-4.49219-3.02734 0-5.07812 1.46484-6.15234 4.44336l-22.9004 61.084c-0.390625 1.02539-0.537109 1.80664-0.537109 2.63672 0 2.44141 1.5625 3.95508 4.10156 3.95508Zm13.4766-28.3691 11.8652-32.8613h0.244141l11.8652 32.8613Z"/>
  </g>
  <line style="fill:none;stroke:#00AEEF;stroke-width:0.5;opacity:1.0;" x1="792.836" x2="792.836" y1="1919" y2="1933"/>
  <text style="stroke:none;fill:black;font-family:sans-serif;font-size:13;font-weight:bold;" transform="matrix(1 0 0 1 776 1953)">Margins</text>
  <text style="stroke:none;fill:black;font-family:sans-serif;font-size:13;" transform="matrix(1 0 0 1 776 1971)">Leading and trailing margins on the left and right side of each symbol</text>
  <text style="stroke:none;fill:black;font-family:sans-serif;font-size:13;" transform="matrix(1 0 0 1 776 1989)">can be adjusted by modifying the x-location of the margin guidelines.</text>
  <text style="stroke:none;fill:black;font-family:sans-serif;font-size:13;" transform="matrix(1 0 0 1 776 2007)">Modifications are automatically applied proportionally to all</text>
  <text style="stroke:none;fill:black;font-family:sans-serif;font-size:13;" transform="matrix(1 0 0 1 776 2025)">scales and weights.</text>
  <g transform="matrix(0.2 0 0 0.2 1289 1933)">
   <path d="m14.209 9.32617 8.49609 8.54492c4.29688 4.3457 9.22852 4.05273 13.8672-1.07422l53.4668-58.9355-4.83398-4.88281-53.0762 58.3984c-1.75781 2.00195-3.41797 2.49023-5.76172 0.146484l-5.85938-5.81055c-2.34375-2.29492-1.80664-4.00391 0.195312-5.81055l57.373-54.0039-4.88281-4.83398-57.959 54.4434c-4.93164 4.58984-5.32227 9.47266-1.02539 13.8184Zm32.0801-90.9668c-2.09961 2.05078-2.24609 4.93164-1.07422 6.88477 1.17188 1.80664 3.4668 2.97852 6.68945 2.14844 7.32422-1.70898 14.9414-2.00195 22.0703 2.68555l-2.92969 7.27539c-1.70898 4.15039-0.830078 7.08008 1.85547 9.81445l11.4746 11.5723c2.44141 2.44141 4.49219 2.53906 7.32422 2.05078l5.32227-0.976562 3.32031 3.36914-0.195312 2.7832c-0.195312 2.49023 0.439453 4.39453 2.88086 6.78711l3.80859 3.71094c2.39258 2.39258 5.46875 2.53906 7.8125 0.195312l14.5508-14.5996c2.34375-2.34375 2.24609-5.32227-0.146484-7.71484l-3.85742-3.80859c-2.39258-2.39258-4.24805-3.17383-6.64062-2.97852l-2.88086 0.244141-3.22266-3.17383 1.2207-5.61523c0.634766-2.83203-0.146484-5.0293-3.07617-7.95898l-10.9863-10.9375c-16.6992-16.6016-38.8672-16.2109-53.3203-1.75781Zm7.4707 1.85547c12.1582-8.88672 28.6133-7.37305 39.7461 3.75977l12.1582 12.0605c1.17188 1.17188 1.36719 2.09961 1.02539 3.80859l-1.61133 7.42188 7.51953 7.42188 4.93164-0.292969c1.26953-0.0488281 1.66016 0.0488281 2.63672 1.02539l2.88086 2.88086-12.207 12.207-2.88086-2.88086c-0.976562-0.976562-1.12305-1.36719-1.07422-2.68555l0.341797-4.88281-7.4707-7.42188-7.61719 1.26953c-1.61133 0.341797-2.34375 0.195312-3.56445-0.976562l-10.0098-10.0098c-1.26953-1.17188-1.41602-2.00195-0.634766-3.85742l4.39453-10.4492c-7.8125-7.27539-17.9688-10.4004-28.125-7.42188-0.78125 0.195312-1.07422-0.439453-0.439453-0.976562Z"/>
  </g>
  <text style="stroke:none;fill:black;font-family:sans-serif;font-size:13;font-weight:bold;" transform="matrix(1 0 0 1 1289 1953)">Exporting</text>
  <text style="stroke:none;fill:black;font-family:sans-serif;font-size:13;" transform="matrix(1 0 0 1 1289 1971)">Symbols should be outlined when exporting to ensure the</text>
  <text style="stroke:none;fill:black;font-family:sans-serif;font-size:13;" transform="matrix(1 0 0 1 1289 1989)">design is preserved when submitting to Xcode.</text>
  <text id="template-version" style="stroke:none;fill:black;font-family:sans-serif;font-size:13;text-anchor:end;" transform="matrix(1 0 0 1 3036 1933)">Template v.5.0</text>
  <text style="stroke:none;fill:black;font-family:sans-serif;font-size:13;text-anchor:end;" transform="matrix(1 0 0 1 3036 1951)">Requires Xcode 15 or greater</text>
  <text id="descriptive-name" style="stroke:none;fill:black;font-family:sans-serif;font-size:13;text-anchor:end;" transform="matrix(1 0 0 1 3036 1969)">Generated from weapon.class.blaster</text>
  <text style="stroke:none;fill:black;font-family:sans-serif;font-size:13;text-anchor:end;" transform="matrix(1 0 0 1 3036 1987)">Typeset at 100.0 points</text>
  <text style="stroke:none;fill:black;font-family:sans-serif;font-size:13;" transform="matrix(1 0 0 1 263 726)">Small</text>
  <text style="stroke:none;fill:black;font-family:sans-serif;font-size:13;" transform="matrix(1 0 0 1 263 1156)">Medium</text>
  <text style="stroke:none;fill:black;font-family:sans-serif;font-size:13;" transform="matrix(1 0 0 1 263 1586)">Large</text>
 </g>
 <g id="Guides">
  <g id="H-reference" style="fill:#27AAE1;stroke:none;" transform="matrix(1 0 0 1 339 696)">
   <path d="M0.993654 0L3.63775 0L29.3281-67.1323L30.0303-67.1323L30.0303-70.459L28.1226-70.459ZM11.6885-24.4799L46.9815-24.4799L46.2315-26.7285L12.4385-26.7285ZM55.1196 0L57.7637 0L30.6382-70.459L29.4326-70.459L29.4326-67.1323Z"/>
  </g>
  <line id="Baseline-S" style="fill:none;stroke:#27AAE1;opacity:1;stroke-width:0.5;" x1="263" x2="3036" y1="696" y2="696"/>
  <line id="Capline-S" style="fill:none;stroke:#27AAE1;opacity:1;stroke-width:0.5;" x1="263" x2="3036" y1="625.541" y2="625.541"/>
  <g id="H-reference" style="fill:#27AAE1;stroke:none;" transform="matrix(1 0 0 1 339 1126)">
   <path d="M0.993654 0L3.63775 0L29.3281-67.1323L30.0303-67.1323L30.0303-70.459L28.1226-70.459ZM11.6885-24.4799L46.9815-24.4799L46.2315-26.7285L12.4385-26.7285ZM55.1196 0L57.7637 0L30.6382-70.459L29.4326-70.459L29.4326-67.1323Z"/>
  </g>
  <line id="Baseline-M" style="fill:none;stroke:#27AAE1;opacity:1;stroke-width:0.5;" x1="263" x2="3036" y1="1126" y2="1126"/>
  <line id="Capline-M" style="fill:none;stroke:#27AAE1;opacity:1;stroke-width:0.5;" x1="263" x2="3036" y1="1055.54" y2="1055.54"/>
  <g id="H-reference" style="fill:#27AAE1;stroke:none;" transform="matrix(1 0 0 1 339 1556)">
   <path d="M0.993654 0L3.63775 0L29.3281-67.1323L30.0303-67.1323L30.0303-70.459L28.1226-70.459ZM11.6885-24.4799L46.9815-24.4799L46.2315-26.7285L12.4385-26.7285ZM55.1196 0L57.7637 0L30.6382-70.459L29.4326-70.459L29.4326-67.1323Z"/>
  </g>
  <line id="Baseline-L" style="fill:none;stroke:#27AAE1;opacity:1;stroke-width:0.5;" x1="263" x2="3036" y1="1556" y2="1556"/>
  <line id="Capline-L" style="fill:none;stroke:#27AAE1;opacity:1;stroke-width:0.5;" x1="263" x2="3036" y1="1485.54" y2="1485.54"/>
  <line id="left-margin-Regular-M" style="fill:none;stroke:#00AEEF;stroke-width:0.5;opacity:1.0;" x1="1392.45" x2="1392.45" y1="1030.79" y2="1150.12"/>
  <line id="right-margin-Regular-M" style="fill:none;stroke:#00AEEF;stroke-width:0.5;opacity:1.0;" x1="1507.24" x2="1507.24" y1="1030.79" y2="1150.12"/>
 </g>
 <g id="Symbols">
  <g id="Regular-L" transform="matrix(1 0 0 1 1376.96 1556)">
   <path class="monochrome-0 multicolor-0:custom hierarchical-0:primary SFSymbolsPreviewWireframe" d="M40.9141-50.56L17.6541-48.45C11.9241-47.93 7.70406-42.87 8.22406-37.14L9.76406-20.2C10.2741-14.48 15.3441-10.26 21.0641-10.77L44.3241-12.88C50.0541-13.4 54.2741-18.46 53.7541-24.19L52.2141-41.13C51.6941-46.86 46.6341-51.08 40.9141-50.56Z"/>
   <path class="monochrome-1 multicolor-1:custom hierarchical-1:secondary SFSymbolsPreviewWireframe" d="M56.1041-47.1C55.9341-48.67 54.5241-49.8 52.9541-49.63C51.3841-49.46 50.2541-48.05 50.4241-46.48L53.2741-20.38C53.4541-18.81 54.8641-17.68 56.4241-17.85C57.9941-18.02 59.1241-19.43 58.9541-21L56.1041-47.1ZM8.48406-41.17C8.31406-42.74 6.90406-43.87 5.33406-43.7C3.76406-43.53 2.63406-42.12 2.80406-40.55L5.66406-14.45C5.83406-12.88 7.24406-11.75 8.80406-11.92C10.3741-12.09 11.5041-13.5 11.3341-15.07L8.48406-41.17Z"/>
   <path class="monochrome-2 multicolor-2:custom hierarchical-2:secondary SFSymbolsPreviewWireframe" d="M31.7641-50.14C31.5941-51.71 30.1841-52.84 28.6141-52.67C27.0441-52.49 25.9141-51.08 26.0841-49.52L30.2341-11.61C30.4041-10.04 31.8141-8.91 33.3741-9.08C34.9441-9.25 36.0741-10.66 35.9041-12.23L31.7641-50.14Z"/>
   <path class="monochrome-3 multicolor-3:custom hierarchical-3:primary SFSymbolsPreviewWireframe" d="M68.3741-53.43L68.3441-53.67L55.8941-49.05L61.4241 1.6L66.2341 13.53L81.0141 8.79L81.0141 4.17L74.2941-1.83L74.2941-15.5L71.7941-23.63L68.3741-53.43ZM74.2941-14.41L74.2941-15.5L72.0241-22.88L90.2541-29.14L93.0941-20.86L74.2941-14.41ZM80.9841-56.15L85.8741-41.89L77.0941-38.88L72.2041-53.13L80.9841-56.15Z"/>
   <path class="monochrome-4 multicolor-4:custom hierarchical-4:secondary SFSymbolsPreviewWireframe" d="M71.9341-23.16L71.7941-23.63L70.8641-31.71C72.7041-34.32 75.6641-37.9 77.5441-37.94C79.0941-37.98 80.4041-37.19 81.5741-36.48C82.5141-35.91 83.3541-35.4 84.1641-35.41C84.9841-35.43 86.0641-36.89 87.0241-38.56L89.4141-31.6C88.1841-29.7 86.8941-28.23 85.6941-28.23C84.7541-28.23 83.4941-28.87 82.2841-29.48C81.0641-30.1 79.9141-30.69 79.2241-30.53C78.2741-30.32 76.6441-27.21 75.6941-25.12C75.3241-24.32 73.3941-23.66 72.1641-23.24L71.9341-23.16ZM69.8741-40.37L68.9441-48.42L73.3041-49.92L75.8741-42.43L69.8741-40.37ZM86.5941-62.55L79.6141-60.15L96.8741-9.85L96.9141-9.87L96.9141-9.85L131.134-3.7L132.364-10.53L103.774-15.67C103.054-15.8 102.454-16.31 102.214-17L86.5941-62.55Z"/>
   <path class="monochrome-5 multicolor-5:custom hierarchical-5:primary SFSymbolsPreviewWireframe" d="M128.314-67.55L133.954-51.11L140.434-57.56L137.004-67.55L128.314-67.55Z"/>
   <path class="monochrome-6 multicolor-6:custom hierarchical-6:primary SFSymbolsPreviewWireframe" d="M126.144-73.89L87.2541-60.55L101.654-18.58L140.544-31.92L126.144-73.89Z"/>
   <path class="monochrome-7 multicolor-7:custom hierarchical-7:secondary SFSymbolsPreviewWireframe" d="M105.054-58.81L126.174-73.89L130.964-59.9L105.054-58.81ZM109.844-44.81L130.964-59.9L135.754-45.91L109.844-44.81ZM114.634-30.82L135.754-45.91L140.544-31.91L114.634-30.82Z"/>
  </g>
  <g id="Regular-M" transform="matrix(1 0 0 1 1392.45 1126)">
   <path class="monochrome-0 multicolor-0:custom hierarchical-0:primary SFSymbolsPreviewWireframe" d="M32.34-47.48L14.31-45.85C9.87-45.45 6.6-41.52 7-37.08L8.19-23.95C8.59-19.51 12.51-16.24 16.95-16.64L34.98-18.27C39.42-18.68 42.69-22.6 42.29-27.04L41.1-40.17C40.7-44.61 36.77-47.88 32.34-47.48Z"/>
   <path class="monochrome-1 multicolor-1:custom hierarchical-1:secondary SFSymbolsPreviewWireframe" d="M44.11-44.8C43.98-46.02 42.89-46.89 41.67-46.76C40.46-46.63 39.58-45.53 39.71-44.32L41.92-24.09C42.06-22.87 43.15-21.99 44.37-22.13C45.58-22.26 46.46-23.35 46.33-24.57L44.11-44.8ZM7.2-40.2C7.07-41.42 5.97-42.3 4.76-42.16C3.54-42.03 2.67-40.94 2.8-39.72L5.01-19.49C5.14-18.28 6.24-17.4 7.45-17.53C8.67-17.66 9.54-18.76 9.41-19.97L7.2-40.2Z"/>
   <path class="monochrome-2 multicolor-2:custom hierarchical-2:secondary SFSymbolsPreviewWireframe" d="M25.25-47.15C25.11-48.37 24.02-49.25 22.8-49.11C21.59-48.98 20.71-47.89 20.84-46.67L24.06-17.29C24.19-16.07 25.28-15.19 26.5-15.32C27.71-15.46 28.59-16.55 28.46-17.77L25.25-47.15Z"/>
   <path class="monochrome-3 multicolor-3:custom hierarchical-3:primary SFSymbolsPreviewWireframe" d="M53.62-49.71L53.6-49.9L43.95-46.31L48.24-7.05L51.97 2.2L63.43-1.47L63.43-5.06L58.21-9.71L58.21-20.3L56.28-26.6L53.62-49.71ZM58.21-19.46L58.21-20.3L56.45-26.03L70.59-30.88L72.79-24.46L58.21-19.46ZM63.4-51.81L67.19-40.76L60.39-38.43L56.59-49.48L63.4-51.81Z"/>
   <path class="monochrome-4 multicolor-4:custom hierarchical-4:secondary SFSymbolsPreviewWireframe" d="M56.39-26.24L56.28-26.6L55.56-32.87C56.98-34.9 59.28-37.66 60.74-37.7C61.93-37.73 62.95-37.12 63.86-36.57C64.58-36.13 65.24-35.73 65.86-35.74C66.5-35.75 67.34-36.88 68.08-38.18L69.93-32.78C68.98-31.31 67.98-30.17 67.06-30.17C66.33-30.17 65.34-30.67 64.41-31.14C63.47-31.62 62.57-32.08 62.04-31.96C61.3-31.79 60.04-29.38 59.3-27.76C59.01-27.14 57.52-26.63 56.56-26.3L56.39-26.24ZM54.79-39.59L54.07-45.82L57.45-46.98L59.44-41.18L54.79-39.59ZM67.75-56.77L62.34-54.92L75.72-15.92L75.75-15.94L75.75-15.92L102.28-11.16L103.23-16.45L81.07-20.43C80.51-20.53 80.05-20.93 79.86-21.47L67.75-56.77Z"/>
   <path class="monochrome-5 multicolor-5:custom hierarchical-5:primary SFSymbolsPreviewWireframe" d="M100.09-60.65L104.47-47.91L109.49-52.91L106.83-60.65L100.09-60.65Z"/>
   <path class="monochrome-6 multicolor-6:custom hierarchical-6:primary SFSymbolsPreviewWireframe" d="M98.41-65.57L68.26-55.23L79.43-22.69L109.57-33.03L98.41-65.57Z"/>
   <path class="monochrome-7 multicolor-7:custom hierarchical-7:secondary SFSymbolsPreviewWireframe" d="M82.06-53.87L98.43-65.57L102.15-54.72L82.06-53.87ZM85.77-43.03L102.15-54.72L105.86-43.87L85.77-43.03ZM89.49-32.18L105.86-43.87L109.57-33.03L89.49-32.18Z"/>
  </g>
  <g id="Regular-S" transform="matrix(1 0 0 1 1404.04 696)">
   <path class="monochrome-0 multicolor-0:custom hierarchical-0:primary SFSymbolsPreviewWireframe" d="M25.9269-44.551L11.8069-43.272C8.33689-42.957 5.76689-39.884 6.08689-36.408L7.01689-26.125C7.33689-22.65 10.4069-20.088 13.8769-20.402L27.9969-21.682C31.4769-21.996 34.0369-25.069 33.7169-28.545L32.7869-38.828C32.4769-42.304 29.3969-44.866 25.9269-44.551Z"/>
   <path class="monochrome-1 multicolor-1:custom hierarchical-1:secondary SFSymbolsPreviewWireframe" d="M35.1469-42.451C35.0469-43.403 34.1869-44.09 33.2369-43.986C32.2869-43.882 31.5969-43.026 31.6969-42.074L33.4369-26.233C33.5369-25.281 34.3969-24.594 35.3469-24.698C36.2969-24.802 36.9869-25.658 36.8769-26.609L35.1469-42.451ZM6.24689-38.853C6.13689-39.804 5.28689-40.492 4.32689-40.388C3.37689-40.284 2.69689-39.428 2.79689-38.476L4.52689-22.635C4.63689-21.683 5.48689-20.996 6.43689-21.1C7.38689-21.204 8.07689-22.059 7.97689-23.011L6.24689-38.853Z"/>
   <path class="monochrome-2 multicolor-2:custom hierarchical-2:secondary SFSymbolsPreviewWireframe" d="M20.3769-44.295C20.2669-45.247 19.4169-45.934 18.4569-45.83C17.5069-45.726 16.8269-44.87 16.9269-43.918L19.4369-20.907C19.5469-19.955 20.3969-19.268 21.3569-19.372C22.3069-19.476 22.9969-20.332 22.8869-21.284L20.3769-44.295Z"/>
   <path class="monochrome-3 multicolor-3:custom hierarchical-3:primary SFSymbolsPreviewWireframe" d="M42.5969-46.293L42.5769-46.442L35.0169-43.637L38.3769-12.891L41.2969-5.65L50.2669-8.525L50.2669-11.333L46.1869-14.975L46.1869-23.269L44.6669-28.204L42.5969-46.293ZM46.1869-22.607L46.1869-23.269L44.8069-27.753L55.8769-31.55L57.5969-26.522L46.1869-22.607ZM50.2469-47.943L53.2169-39.289L47.8869-37.461L44.9169-46.114L50.2469-47.943Z"/>
   <path class="monochrome-4 multicolor-4:custom hierarchical-4:secondary SFSymbolsPreviewWireframe" d="M44.7569-27.92L44.6669-28.204L44.1069-33.111C45.2269-34.697 47.0169-36.864 48.1669-36.894C49.0969-36.918 49.8969-36.436 50.6069-36.006C51.1769-35.66 51.6869-35.348 52.1769-35.358C52.6769-35.368 53.3269-36.252 53.9169-37.265L55.3669-33.042C54.6169-31.89 53.8369-30.997 53.1069-30.997C52.5369-30.997 51.7669-31.387 51.0369-31.758C50.2969-32.134 49.5969-32.49 49.1869-32.396C48.6069-32.265 47.6169-30.379 47.0369-29.113C46.8169-28.625 45.6369-28.222 44.8969-27.967L44.7569-27.92ZM43.5069-38.369L42.9469-43.252L45.5869-44.161L47.1469-39.619L43.5069-38.369ZM53.6569-51.827L49.4169-50.373L59.8869-19.842L59.9169-19.852L59.9169-19.842L80.6869-16.108L81.4369-20.253L64.0769-23.372C63.6469-23.451 63.2769-23.761 63.1369-24.182L53.6569-51.827Z"/>
   <path class="monochrome-5 multicolor-5:custom hierarchical-5:primary SFSymbolsPreviewWireframe" d="M78.9769-54.864L82.4069-44.883L86.3369-48.8L84.2569-54.864L78.9769-54.864Z"/>
   <path class="monochrome-6 multicolor-6:custom hierarchical-6:primary SFSymbolsPreviewWireframe" d="M77.6569-58.713L54.0569-50.616L62.7969-25.138L86.3969-33.236L77.6569-58.713Z"/>
   <path class="monochrome-7 multicolor-7:custom hierarchical-7:secondary SFSymbolsPreviewWireframe" d="M64.8569-49.556L77.6769-58.713L80.5869-50.219L64.8569-49.556ZM67.7669-41.063L80.5869-50.219L83.4969-41.726L67.7669-41.063ZM70.6769-32.57L83.4869-41.726L86.3969-33.233L70.6769-32.57Z"/>
  </g>
 </g>
</svg>
